<?xml version="1.0" encoding="utf-8"?>
<!-- Generator: Adobe Illustrator 14.0.0, SVG Export Plug-In . SVG Version: 6.00 Build 43363)  -->
<!DOCTYPE svg PUBLIC "-//W3C//DTD SVG 1.1//EN" "http://www.w3.org/Graphics/SVG/1.1/DTD/svg11.dtd">
<svg version="1.1" id="Layer_1" xmlns="http://www.w3.org/2000/svg" xmlns:xlink="http://www.w3.org/1999/xlink" x="0px" y="0px"
	 width="590.97px" height="598.47px" viewBox="0 0 590.97 598.47" enable-background="new 0 0 590.97 598.47" xml:space="preserve">
<rect x="704.966" y="-296.986" fill-rule="evenodd" clip-rule="evenodd" fill="none" width="499.475" height="209.99"/>
<text transform="matrix(1 0 0 1 704.9663 -234.7817)" font-family="'CFGaramond-Medium'" font-size="87" letter-spacing="4">ΔΗΜΟΣ</text>
<g>
	<path fill="none" d="M302.146,320.624c-0.413,4.413,0.271,7.729,2,10c6.637-1.197,9.535-2.356,17-4c-0.598-5.265,0.742-8.592,1-13
		C314.194,314.672,308.216,317.694,302.146,320.624z"/>
	<path fill="none" d="M355.146,302.624c-7.219,1.448-13.17,4.164-19,7c-0.104,5.437,0.34,10.327,3,13c4.521-3.146,11.181-4.152,17-6
		C355.932,310.837,358.446,306.481,355.146,302.624z"/>
	<path fill="none" d="M121.405,147.024c0.966,1.814,1.92,3.618,2.863,5.409l15.318,28.802c0.696,1.38,1.265,2.39,1.705,3.028
		c0.439,0.642,0.828,1.119,1.164,1.436c0.241,0.227,0.615,0.285,1.126,0.175c0.511-0.108,1.106-0.477,1.787-1.105
		c0.188-0.005,0.804-0.444,1.851-1.318c1.046-0.871,2.293-2.078,3.74-3.617c0.723-0.769,1.718-1.851,2.981-3.244
		c1.265-1.393,2.518-2.773,3.759-4.144c1.241-1.368,2.765-3.061,4.57-5.079c0.858-0.912,1.268-1.638,1.229-2.174
		c-0.041-0.535-0.204-0.939-0.493-1.21c-0.577-0.543-2.477-1.558-5.697-3.046l-28.642-13.472c-1.705-0.788-3.469-1.607-5.294-2.463
		c-1.744-0.815-3.076-1.437-4.019-1.873C119.804,144.005,120.482,145.294,121.405,147.024z"/>
	<path fill="none" d="M379.943,138.396c2.802,1.479,5.597,2.19,8.389,2.134c2.79-0.056,5.517-0.8,8.176-2.233
		c2.659-1.432,5.199-3.486,7.62-6.165c2.421-2.677,4.648-5.942,6.682-9.794c1.941-3.678,3.403-7.439,4.39-11.285
		c0.984-3.846,1.352-7.476,1.104-10.892c-0.251-3.415-1.179-6.536-2.783-9.361c-1.606-2.824-4.015-5.086-7.224-6.779
		c-2.569-1.356-5.247-2.079-8.034-2.17c-2.789-0.091-5.539,0.49-8.253,1.744c-2.716,1.254-5.356,3.182-7.922,5.781
		c-2.568,2.602-4.929,5.945-7.085,10.029c-1.511,2.861-2.823,6.123-3.937,9.789c-1.114,3.666-1.646,7.323-1.592,10.97
		c0.051,3.647,0.847,7.091,2.385,10.327C373.395,133.729,376.09,136.363,379.943,138.396z"/>
	<path fill="none" d="M420.146,284.624c-12.078-0.333-21.304,7.256-17,20c6.031-1.635,13.938-1.396,18-5
		C415.265,298.938,420.955,289.588,420.146,284.624z"/>
	<path fill="none" d="M293.271,132.47c-94.221,0-170.875,75.772-170.875,168.908c0,93.137,76.654,168.909,170.875,168.909
		s170.875-75.772,170.875-168.909C464.146,208.242,387.492,132.47,293.271,132.47z M295.146,163.624c3.403-4.264,7.244-8.089,15-8
		c-5.4,10.933-2.395,30.271-19,30C293.305,179.116,296.333,173.478,295.146,163.624z M297.146,200.624
		c-0.28,0.264-0.575,0.501-0.863,0.75c-5.306,8.49-15.712,11.88-23.137,18.25c-21.791-1.125-21.952,19.381-40,22
		c-12.075-27.698,10.839-47.982,42-45c-15.811-3.889-32.693-0.787-42,7c-7.121,5.959-14.396,23.45-14,33
		c0.279,6.733,8.205,12.471,2,18c-6.758-2.908-8.283-11.05-10-19c-5.453,7.571,1.647,17.791,4,24c-1.033,5.634-3.897,9.436-6,14
		c-22.31-19.275-14.933-62.838,6-81c21.907-19.008,63.752-19.695,83,5c-0.353,0.937-0.777,1.802-1.231,2.637
		C296.989,200.385,297.073,200.499,297.146,200.624z M203.146,275.624c-3.182,4.932-8.045,16.539-13,23
		c-4.017,0.983-8.774,1.226-14,1C185.42,291.897,181.991,271.469,203.146,275.624z M162.146,272.624c6.71-6.733,19.801-26.514,32-12
		C181.933,262.657,178.209,283.761,162.146,272.624z M282.146,142.624c-0.459,13.092,8.643,31.943-10,34
		C274.42,161.724,265.017,146.247,282.146,142.624z M249.146,141.624c8.378,6.16,18.725,26.379,3,32
		C253.13,161.007,235.943,151.336,249.146,141.624z M217.146,156.624c3.215-15.79,33.238,10.883,15,21
		C233.375,165.32,214.992,167.205,217.146,156.624z M216.146,186.624c-3.578-7.713-21.334-5.939-22-14
		C192.977,158.468,226.613,168.675,216.146,186.624z M174.146,186.624c10.887-3.87,30.438-0.932,28,15
		C194.922,194.515,172.368,202.735,174.146,186.624z M193.146,220.624c-11.593-3.938-31.172,7.34-34-10
		C168.866,211.726,192.189,200.949,193.146,220.624z M190.146,240.624c-13.722,0.977-25.23,15.413-35,1
		C166.169,238.62,183.736,222.483,190.146,240.624z M434.146,228.624c2.227,3.773,7.637,4.363,11,7
		c25.688,57.979,6.879,142.492-31,173c5.385-22.95,1.49-63.843,4-93c-3.168-0.144-10.924,3.724-15,6c0.499,34.87-0.09,65.835,0,99
		c-29.039,23.464-64.323,45.459-120,42c-55.467-3.445-101.063-34.609-127-75c-6.346-9.882-22.754-34.975-20-47
		c2.029-8.861,29.152-20.878,38-25c16.57-7.721,28.476-13.229,38-25c-3.428-46.526,47.116-56.492,75-77
		c5.578-4.102,14.147-10.309,16-15c3.471-8.789,0.275-17.276,3-23c6.617-13.898,22.42-11.498,35-22c8.886,19.114,32.43,23.57,45,39
		l-130,107c0.622,2.711,4.178,2.488,4,6c53.982-22.018,105.978-46.022,169-59c2.417-2.711-1.098-5.553,0-10
		c-4.735,0.265-7.708,2.293-13,2c1.769-7.564,7.637-11.03,9-19c-2.487,0.154-3.096-1.57-5-2c-2.532,1.482-0.616,7.164-6,9
		c-3.826,1.305-8.326-0.085-12-2c-0.605-2.395-1.438-4.562-1-8c2.853-3.538,10.312-7.156,15-3c0.232-1.439,0.674-5.96,3-8
		c5.105-2.121,9.267,4.502,13,7C428.358,220.361,435.028,219.247,434.146,228.624z M421.146,196.624
		c-6.521,10.964-28.991,7.252-31,23c-1.247,9.778,6.127,16.432,18,18c-6.299,9.014-19.635,7.172-29,11
		c-22.503,9.2-54.368,18.777-78,28c-0.08-9.08,9.979-8.021,11-16c35.252-22.748,66.875-49.125,104-70
		C418.304,192.132,419.798,194.305,421.146,196.624z"/>
	<path fill="none" d="M368.146,312.624c10.31,0.977,16.543-2.124,20-8c-0.633-3.367-2.872-5.128-2-10
		c-6.434,0.232-10.432,2.902-16,4C369.484,303.296,368.574,307.718,368.146,312.624z"/>
	<path fill="none" d="M293.396,43.394c-144.191,0-261.5,115.962-261.5,258.5c0,142.537,117.309,258.5,261.5,258.5
		s261.5-115.963,261.5-258.5C554.896,159.356,437.587,43.394,293.396,43.394z M542.528,270.73l-65.602,7.605l-0.92-7.283
		l65.801-9.294L542.528,270.73z M544.7,283.728v9l-65.999,2.332l-0.333-7.333L544.7,283.728z M539.062,246.685l-64.349,14.858
		l-1.724-7.135l64.358-16.558L539.062,246.685z M533.359,224.592l-62.884,20.176l-2.314-6.967l62.752-21.871L533.359,224.592z
		 M469.146,301.378c0,95.894-78.897,173.909-175.875,173.909c-96.978,0-175.875-78.016-175.875-173.909
		S196.293,127.47,293.271,127.47C390.249,127.47,469.146,205.484,469.146,301.378z M438.616,162.671
		c2.61,0.154,5.034,0.289,7.274,0.408c2.237,0.118,4.254,0.228,6.051,0.327c1.795,0.1,3.229,0.177,4.303,0.232
		c0.186,0.018,0.322,0.055,0.412,0.109c0.088,0.056,0.183,0.041,0.285-0.043c0.05-0.042,0.105-0.39,0.169-1.039
		c0.216-1.293,0.59-3.272,1.125-5.94c0.533-2.669,1.134-5.776,1.798-9.322c0.664-3.548,1.372-7.43,2.124-11.647
		c0.751-4.219,1.499-8.52,2.242-12.901c0.306-0.253,0.616-0.445,0.935-0.58c0.316-0.134,0.72-0.062,1.209,0.221
		c1.641,1.983,3.212,3.938,4.719,5.861c1.504,1.924,3.119,3.928,4.844,6.015l14.51,17.548c1.22,1.475,2.187,2.645,2.902,3.51
		c0.757,0.916,1.419,1.588,1.988,2.017c0.568,0.43,1.062,0.663,1.48,0.703s0.877-0.104,1.377-0.432
		c0.455,0.138,0.815,0.418,1.08,0.841c0.265,0.424,0.43,0.778,0.497,1.066c-1.708,2.183-3.39,4.473-5.046,6.87
		c-1.658,2.398-2.938,4.397-3.839,5.999c-0.72,0.166-1.351,0.025-1.894-0.425c-0.544-0.45-0.907-0.942-1.091-1.475
		c0.408-0.852,0.854-1.971,1.338-3.354c0.481-1.384,0.818-2.841,1.012-4.369c0.25-1.664-0.209-3.488-1.38-5.475
		c-1.172-1.985-2.997-4.48-5.479-7.481l-9.084-10.986c-0.547-0.662-0.937-0.511-1.168,0.452l-5.507,27.675
		c-0.173,0.827-0.404,1.298-0.696,1.411c-0.292,0.112-0.695,0.168-1.211,0.166l-34.307-1.564c-0.467-0.044-0.732,0.047-0.8,0.275
		c-0.069,0.228-0.024,0.49,0.136,0.787c0.159,0.296,0.365,0.597,0.618,0.902c0.294,0.355,0.525,0.635,0.693,0.839l13.879,16.786
		c1.262,1.525,2.485,2.954,3.673,4.285c1.186,1.332,2.478,2.403,3.879,3.216c1.398,0.812,2.957,1.3,4.678,1.463
		c1.719,0.163,3.768-0.183,6.146-1.034c0.521,0.424,0.942,0.933,1.262,1.525c0.317,0.593,0.312,1.155-0.02,1.686
		c-1.194,0.731-2.528,1.448-4.001,2.152s-2.957,1.396-4.451,2.074s-2.936,1.292-4.323,1.841c-1.389,0.548-2.568,1.01-3.541,1.387
		c-0.875-1.162-1.625-2.146-2.252-2.956c-0.626-0.811-1.241-1.606-1.848-2.39c-0.604-0.785-1.286-1.634-2.044-2.55
		c-0.757-0.915-1.683-2.034-2.775-3.356l-21.07-25.483c-0.842-1.019-1.645-1.938-2.41-2.76c-0.766-0.824-1.57-1.743-2.41-2.761
		c-0.211-0.255,0.01-0.865,0.666-1.835c2.331,0.128,4.812,0.28,7.445,0.46c2.631,0.179,5.285,0.36,7.964,0.544
		C433.359,162.349,436.004,162.518,438.616,162.671z M357.508,108.475c0.437-4.433,1.811-8.839,4.121-13.217
		c2.312-4.377,5.226-8.025,8.744-10.944c3.518-2.919,7.396-5.033,11.632-6.342c4.234-1.309,8.681-1.743,13.337-1.301
		c4.653,0.441,9.259,1.865,13.811,4.269c4.729,2.495,8.565,5.511,11.515,9.044c2.947,3.534,5.04,7.345,6.279,11.432
		c1.238,4.087,1.595,8.324,1.071,12.711c-0.525,4.388-1.913,8.712-4.161,12.972c-2.435,4.612-5.419,8.391-8.952,11.339
		c-3.534,2.948-7.382,5.042-11.542,6.278c-4.161,1.236-8.53,1.561-13.107,0.973c-4.578-0.589-9.144-2.084-13.696-4.486
		c-4.552-2.403-8.325-5.329-11.32-8.774c-2.995-3.446-5.142-7.192-6.439-11.235C357.5,117.146,357.07,112.909,357.508,108.475z
		 M254.179,115.108l1.888-0.25c1.192-0.168,2.153-0.357,2.886-0.571c0.731-0.212,1.317-0.576,1.761-1.094
		c0.441-0.517,0.774-1.251,0.996-2.203c0.222-0.951,0.418-2.218,0.591-3.798c0.333-2.765,0.662-6.008,0.987-9.73
		c0.324-3.721,0.711-7.954,1.161-12.696c0.354-3.621,0.661-7.295,0.921-11.019c0.258-3.723,0.423-6.971,0.492-9.742
		c0.138-2.901-0.258-4.892-1.187-5.972c-0.931-1.079-2.579-1.813-4.946-2.204l-1.972-0.347c-0.32-0.404-0.47-1.002-0.45-1.794
		c0.021-0.792,0.295-1.246,0.827-1.366c3.293,0.281,6.92,0.471,10.879,0.571c1.45,0.036,2.92,0.058,4.405,0.062
		s3.086-0.037,4.807-0.127c-0.068,2.706,0.501,5.642,1.709,8.807c1.208,3.167,2.749,6.854,4.624,11.06l7.787,17.229
		c0.311,0.734,0.702,1.602,1.172,2.604c0.47,1.002,0.972,2.021,1.508,3.058c0.534,1.038,1.053,2.074,1.556,3.109
		c0.502,1.037,0.941,1.955,1.317,2.757c1.174-2.083,2.315-4.151,3.424-6.203c1.106-2.052,2.184-4.119,3.226-6.207l6.876-13.493
		c1.249-2.411,2.343-4.562,3.281-6.454c0.939-1.891,1.776-3.669,2.511-5.334c0.735-1.665,1.37-3.283,1.905-4.854
		c0.534-1.57,1.022-3.242,1.463-5.014c2.105,0.251,3.885,0.396,5.337,0.432c1.45,0.036,2.836,0.071,4.156,0.104
		c1.518,0.038,3.2,0.065,5.049,0.077c1.848,0.015,3.631-0.023,5.351-0.113c0.521,0.278,0.772,0.779,0.754,1.505
		c-0.018,0.727-0.197,1.282-0.537,1.67l-2.58,0.232c-1.191,0.104-2.203,0.291-3.035,0.567c-0.833,0.276-1.503,0.705-2.013,1.286
		s-0.893,1.349-1.147,2.299c-0.256,0.951-0.4,2.152-0.437,3.604c-0.147,8.448-0.258,16.152-0.334,23.115
		c-0.076,6.964-0.033,13.749,0.132,20.354c0.035,1.189,0.093,2.23,0.169,3.123c0.077,0.894,0.256,1.658,0.537,2.292
		c0.281,0.635,0.714,1.141,1.299,1.518c0.584,0.379,1.402,0.646,2.455,0.805l3.16,0.377c0.319,0.403,0.47,1.002,0.449,1.793
		c-0.018,0.728-0.262,1.183-0.728,1.368c-4.35-0.307-8.669-0.515-12.957-0.622c-2.112-0.054-4.355-0.095-6.731-0.12
		c-2.376-0.027-4.721-0.004-7.033,0.071c-0.521-0.278-0.789-0.778-0.804-1.506c-0.016-0.727,0.213-1.248,0.684-1.567l2.88-0.324
		c1.192-0.168,2.104-0.375,2.739-0.624c0.633-0.247,1.105-0.665,1.418-1.252c0.312-0.586,0.495-1.356,0.553-2.313
		c0.057-0.954,0.104-2.191,0.143-3.71l0.477-26.825l0.294-11.679l-0.198-0.005l-24.523,49.79c-0.539,0.383-1.071,0.567-1.599,0.555
		c-0.331-0.009-0.691-0.067-1.085-0.176c-0.394-0.109-0.687-0.265-0.88-0.468l-20.897-51.131l-0.198-0.005
		c-0.277,3.162-0.496,5.979-0.658,8.451c-0.161,2.472-0.342,5.059-0.541,7.76c-0.106,1.582-0.2,3.33-0.28,5.242
		c-0.082,1.913-0.164,3.875-0.247,5.886c-0.085,2.013-0.168,4.007-0.25,5.985c-0.084,1.979-0.146,3.826-0.188,5.541
		c-0.071,2.837,0.143,4.791,0.645,5.858c0.501,1.07,1.739,1.728,3.714,1.976l3.751,0.49c0.388,0.341,0.555,0.905,0.502,1.696
		c-0.054,0.791-0.28,1.28-0.681,1.468c-1.778-0.178-3.656-0.307-5.635-0.389c-1.979-0.084-3.925-0.148-5.838-0.196
		c-1.584-0.04-3.301-0.067-5.147-0.08c-1.85-0.014-3.731,0.021-5.647,0.105c-0.524-0.211-0.792-0.713-0.805-1.506
		C253.581,115.886,253.776,115.362,254.179,115.108z M154.708,91.744c4.507-1.89,8.764-3.771,12.771-5.644
		c3.886-1.817,7.76-3.738,11.622-5.763c0.41,0.1,0.791,0.487,1.144,1.159c0.351,0.674,0.447,1.23,0.288,1.668l-1.8,1.061
		c-1.02,0.623-1.781,1.215-2.283,1.778c-0.502,0.562-0.735,1.272-0.698,2.129c0.036,0.858,0.318,1.966,0.843,3.322
		c0.526,1.357,1.292,3.111,2.298,5.264l4.865,10.403c0.308,0.658,0.574,1.152,0.802,1.482c0.227,0.331,0.503,0.53,0.826,0.598
		c0.322,0.068,0.761-0.009,1.312-0.231c0.553-0.221,1.306-0.556,2.263-1.004l21.165-9.896c1.016-0.475,1.771-0.846,2.266-1.114
		c0.493-0.267,0.834-0.554,1.02-0.858c0.185-0.306,0.207-0.645,0.07-1.018c-0.138-0.372-0.36-0.887-0.668-1.545l-4.864-10.403
		c-1.007-2.152-1.854-3.849-2.546-5.094c-0.69-1.242-1.354-2.153-1.988-2.731c-0.635-0.577-1.344-0.847-2.126-0.809
		c-0.785,0.039-1.771,0.265-2.963,0.675l-2.278,0.737c-0.498-0.13-0.895-0.546-1.186-1.249c-0.291-0.7-0.345-1.24-0.156-1.62
		c2.388-0.97,4.604-1.916,6.651-2.837c2.046-0.92,4.115-1.87,6.209-2.849c2.031-0.95,3.998-1.887,5.897-2.813
		c1.899-0.924,3.866-1.934,5.903-3.033c0.411,0.1,0.792,0.487,1.144,1.159c0.352,0.674,0.418,1.244,0.199,1.71l-1.71,1.019
		c-1.08,0.651-1.887,1.265-2.418,1.841c-0.533,0.577-0.796,1.301-0.788,2.172c0.007,0.871,0.273,1.986,0.798,3.343
		c0.526,1.357,1.292,3.111,2.298,5.264l15.433,33.002c1.007,2.152,1.862,3.866,2.566,5.139c0.705,1.274,1.374,2.199,2.009,2.776
		c0.634,0.578,1.343,0.848,2.127,0.81c0.783-0.039,1.741-0.249,2.873-0.634l1.878-0.659c0.499,0.132,0.894,0.549,1.185,1.249
		c0.291,0.702,0.344,1.241,0.157,1.621c-4.029,1.665-7.988,3.407-11.874,5.225c-2.093,0.979-4.163,1.964-6.212,2.959
		c-2.049,0.994-4.152,2.068-6.307,3.223c-0.471-0.072-0.859-0.436-1.167-1.094c-0.336-0.718-0.425-1.294-0.265-1.734l2.158-1.228
		c1.021-0.622,1.781-1.216,2.283-1.778s0.749-1.279,0.743-2.15c-0.008-0.871-0.272-1.985-0.799-3.343
		c-0.524-1.356-1.291-3.112-2.298-5.265l-5.996-12.824c-0.308-0.657-0.561-1.158-0.758-1.503c-0.198-0.345-0.473-0.544-0.826-0.598
		c-0.353-0.054-0.791,0.024-1.312,0.231c-0.522,0.208-1.292,0.549-2.308,1.024l-21.164,9.896c-0.957,0.447-1.697,0.812-2.222,1.094
		c-0.523,0.282-0.879,0.574-1.063,0.88c-0.186,0.305-0.225,0.651-0.116,1.037c0.107,0.388,0.316,0.91,0.623,1.567l5.997,12.823
		c1.007,2.152,1.862,3.866,2.567,5.139c0.704,1.274,1.403,2.186,2.098,2.735c0.694,0.549,1.418,0.812,2.172,0.787
		s1.696-0.228,2.828-0.612l2.326-0.869c0.438,0.161,0.804,0.591,1.096,1.291c0.291,0.703,0.343,1.242,0.156,1.621
		c-4.448,1.861-8.705,3.743-12.771,5.644c-3.887,1.818-7.76,3.738-11.622,5.763c-0.412-0.1-0.792-0.485-1.144-1.159
		c-0.352-0.672-0.447-1.229-0.288-1.669l1.8-1.06c1.021-0.622,1.781-1.216,2.283-1.778s0.749-1.279,0.743-2.15
		c-0.008-0.871-0.272-1.985-0.799-3.343c-0.524-1.356-1.291-3.112-2.298-5.265l-15.432-33.002c-1.007-2.152-1.862-3.864-2.567-5.138
		c-0.704-1.272-1.403-2.186-2.098-2.735s-1.425-0.826-2.193-0.832c-0.767-0.005-1.703,0.214-2.807,0.657l-2.326,0.868
		c-0.439-0.158-0.805-0.588-1.096-1.291C154.573,92.664,154.519,92.124,154.708,91.744z M111.512,135.144
		c0.179-1.008,0.301-1.958,0.367-2.848c0.066-0.889,0.089-1.636,0.07-2.243c-0.019-0.606,0.016-1.004,0.104-1.194
		c0.486-0.901,1.321-1.021,2.51-0.357c1.612,0.791,3.425,1.657,5.438,2.598c2.014,0.942,4.488,2.069,7.423,3.378l40.413,18.15
		c2.366,1.048,4.294,1.841,5.781,2.377c1.487,0.539,2.375,0.942,2.664,1.214c0.625,0.588,0.701,1.158,0.228,1.709
		c-0.473,0.553-1.343,1.501-2.608,2.847l-30.58,32.532c-1.041,1.107-1.799,1.842-2.278,2.207c-0.479,0.365-0.958,0.322-1.439-0.131
		c-0.145-0.136-0.353-0.467-0.626-0.996c-0.272-0.527-0.572-1.126-0.896-1.793c-0.324-0.666-0.636-1.322-0.937-1.967
		c-0.3-0.644-0.55-1.197-0.751-1.658l-19.987-41.614c-1.249-2.621-2.325-4.631-3.233-6.028c-0.906-1.396-1.816-2.522-2.73-3.382
		C110.977,137.086,111.333,136.153,111.512,135.144z M56.017,215.93l62.752,21.871l-2.314,6.967l-62.884-20.176L56.017,215.93z
		 M49.582,237.849l64.358,16.558l-1.724,7.135l-64.349-14.857L49.582,237.849z M45.123,261.758l65.801,9.294l-0.919,7.283
		l-65.602-7.606L45.123,261.758z M42.229,283.727l66.333,4l-0.333,7.333l-66-2.333V283.727z M41.827,307.11l66.398-2.727
		l0.408,7.329l-65.897,4.352L41.827,307.11z M43.417,329.427l66.122-6.638l0.84,7.293l-65.526,8.23L43.417,329.427z M94.323,432.556
		c-1.237,0.681-2.135,1.328-2.694,1.948c-0.561,0.617-0.821,1.311-0.78,2.08c0.039,0.769,0.246,1.71,0.622,2.824l0.646,1.848
		c-0.127,0.487-0.531,0.871-1.212,1.152c-0.681,0.279-1.205,0.326-1.574,0.14c-1.63-3.966-3.334-7.864-5.11-11.691
		c-0.957-2.062-1.92-4.101-2.894-6.117c-0.972-2.019-2.021-4.091-3.149-6.214c0.069-0.461,0.421-0.84,1.061-1.138
		c0.696-0.323,1.257-0.405,1.685-0.245l1.2,2.128c0.606,1.006,1.186,1.757,1.734,2.254c0.548,0.497,1.245,0.745,2.093,0.746
		c0.847,0,1.929-0.251,3.247-0.756c1.317-0.505,3.022-1.242,5.111-2.212l38.052-17.666c0.639-0.297,1.125-0.54,1.46-0.731
		c0.334-0.191,0.527-0.46,0.579-0.806c0.051-0.346-0.027-0.775-0.229-1.289c-0.205-0.514-0.538-1.272-1.003-2.272l-9.677-20.845
		c-0.438-0.942-0.794-1.671-1.068-2.188c-0.276-0.516-0.562-0.866-0.858-1.05c-0.298-0.186-0.634-0.226-1.009-0.123
		c-0.376,0.103-0.884,0.303-1.521,0.6l-38.052,17.666c-2.09,0.97-3.754,1.795-4.988,2.477c-1.237,0.682-2.12,1.36-2.652,2.036
		c-0.533,0.678-0.787,1.386-0.761,2.125c0.025,0.739,0.226,1.666,0.602,2.779l0.852,2.289c-0.154,0.429-0.572,0.785-1.252,1.065
		c-0.682,0.278-1.206,0.325-1.575,0.14c-1.821-4.38-3.661-8.571-5.521-12.575c-1.776-3.827-3.654-7.643-5.632-11.448
		c0.095-0.403,0.469-0.772,1.123-1.112c0.653-0.34,1.193-0.429,1.621-0.27l1.036,1.773c0.606,1.006,1.186,1.758,1.734,2.255
		c0.548,0.497,1.246,0.746,2.093,0.745c0.847,0.001,1.929-0.251,3.247-0.756c1.317-0.504,3.022-1.241,5.112-2.211l32.043-14.877
		c2.09-0.97,3.752-1.796,4.989-2.477c1.234-0.682,2.12-1.36,2.652-2.036c0.533-0.678,0.8-1.393,0.804-2.146
		c0.003-0.753-0.212-1.673-0.646-2.759l-0.851-2.289c0.152-0.43,0.57-0.786,1.252-1.065c0.681-0.279,1.205-0.328,1.576-0.141
		c1.848,4.438,3.688,8.629,5.52,12.575l18.329,39.479c0.929,2.001,1.845,3.938,2.75,5.81c0.902,1.87,1.891,3.809,2.965,5.815
		c-0.097,0.402-0.472,0.773-1.124,1.113c-0.654,0.339-1.208,0.399-1.663,0.182l-0.993-1.687c-0.637-1.064-1.234-1.86-1.797-2.387
		c-0.562-0.526-1.267-0.791-2.113-0.79c-0.847-0.001-1.93,0.252-3.247,0.756c-1.318,0.505-3.022,1.242-5.112,2.213l-32.043,14.875
		C97.221,431.048,95.557,431.874,94.323,432.556z M150.523,464.291c-0.278-0.685-0.717-1.371-1.314-2.059
		c-0.599-0.688-1.31-1.445-2.136-2.271l-4.477-4.473c-0.965-0.965-1.63-1.448-1.994-1.45c-0.365-0.004-1.021,0.471-1.972,1.422
		l-8.618,8.622c-1.675,1.677-2.985,3.125-3.934,4.35c-0.948,1.224-1.465,2.383-1.547,3.476c-0.042,0.501-0.016,1.002,0.08,1.505
		c0.094,0.502,0.338,1.108,0.731,1.817c0.392,0.71,1.002,1.545,1.829,2.508c0.828,0.962,1.907,2.108,3.239,3.439
		c1.929,1.929,3.591,3.433,4.989,4.513c1.398,1.081,2.816,1.797,4.255,2.148s3.021,0.374,4.752,0.066
		c1.729-0.308,3.866-0.906,6.413-1.802c0.592-0.041,1.118,0.259,1.579,0.9c0.46,0.641,0.578,1.211,0.354,1.711
		c-0.862,0.678-1.915,1.41-3.163,2.2c-1.248,0.789-2.495,1.532-3.743,2.23c-1.249,0.698-2.464,1.316-3.644,1.855
		c-1.183,0.538-2.114,0.92-2.795,1.143c-2.205-2.387-4.801-5.094-7.785-8.12c-2.984-3.03-5.924-5.989-8.816-8.879l-7.989-7.985
		c-1.608-1.607-3.248-3.226-4.924-4.854s-3.753-3.594-6.231-5.888c-0.094-0.457,0.106-0.933,0.605-1.431
		c0.542-0.545,1.018-0.792,1.43-0.743l3.3,2.483c0.963,0.69,1.785,1.197,2.473,1.521c0.686,0.324,1.427,0.363,2.223,0.118
		c0.795-0.245,1.703-0.81,2.723-1.691c1.019-0.881,2.343-2.138,3.971-3.767l25.042-25.056c1.63-1.629,2.884-2.954,3.765-3.974
		c0.882-1.019,1.455-1.916,1.724-2.688c0.267-0.772,0.251-1.514-0.051-2.222c-0.302-0.709-0.821-1.566-1.557-2.574l-1.242-1.649
		c-0.051-0.501,0.196-1.001,0.74-1.499c0.542-0.497,1.065-0.676,1.568-0.536c2.986,3.256,5.995,6.398,9.025,9.428l14.051,14.043
		c2.204,2.202,4.2,4.176,5.991,5.92c1.79,1.744,2.938,2.778,3.441,3.101c-0.227,0.316-0.645,0.872-1.252,1.666
		c-0.611,0.793-1.334,1.7-2.168,2.72c-0.837,1.02-1.741,2.107-2.711,3.263c-0.973,1.155-1.933,2.256-2.882,3.296
		c-0.5,0.226-1.037,0.096-1.608-0.387c-0.574-0.483-0.861-0.998-0.866-1.544c0.942-1.862,1.591-3.544,1.946-5.046
		c0.352-1.502,0.421-2.926,0.207-4.271c-0.216-1.347-0.751-2.673-1.602-3.978c-0.854-1.305-2.037-2.714-3.553-4.229l-5.303-5.3
		c-0.551-0.551-1-0.953-1.343-1.206c-0.344-0.253-0.663-0.368-0.96-0.349c-0.296,0.021-0.637,0.201-1.021,0.541
		c-0.386,0.338-0.894,0.825-1.526,1.459l-12.487,12.493c-0.95,0.951-1.425,1.609-1.422,1.973c0.002,0.365,0.486,1.029,1.451,1.993
		l4.477,4.475c0.826,0.825,1.583,1.537,2.271,2.134c0.688,0.598,1.386,1.046,2.096,1.348c0.708,0.301,1.461,0.398,2.258,0.29
		c0.797-0.107,1.717-0.502,2.761-1.179l2.517-1.691c0.455,0.003,0.959,0.28,1.511,0.831c0.551,0.551,0.781,1.054,0.694,1.509
		c-1.088,0.995-2.254,2.069-3.497,3.224c-1.245,1.153-2.523,2.386-3.835,3.699c-1.268,1.268-2.478,2.524-3.63,3.769
		c-1.154,1.246-2.182,2.367-3.086,3.364c-0.501,0.133-1.025-0.076-1.577-0.626c-0.551-0.552-0.806-1.077-0.764-1.579l1.554-2.518
		c0.675-1.043,1.079-1.977,1.21-2.795C150.875,465.73,150.801,464.978,150.523,464.291z M366.38,530.048
		c-0.05,1.475-0.137,2.925-0.262,4.349c-0.125,1.427-0.299,2.778-0.516,4.057c-0.22,1.28-0.43,2.266-0.629,2.953
		c-3.212,0.481-6.909,1.104-11.093,1.868c-4.185,0.764-8.282,1.529-12.302,2.294l-11.095,2.114c-2.234,0.425-4.493,0.871-6.782,1.34
		c-2.291,0.468-5.083,1.081-8.374,1.839c-0.431-0.179-0.711-0.612-0.843-1.305c-0.145-0.755-0.081-1.288,0.19-1.602l3.91-1.33
		c1.111-0.407,1.993-0.803,2.647-1.188s1.104-0.976,1.35-1.772c0.245-0.795,0.289-1.862,0.134-3.201
		c-0.158-1.339-0.45-3.14-0.881-5.403l-6.628-34.799c-0.43-2.264-0.819-4.045-1.165-5.348c-0.349-1.302-0.766-2.28-1.255-2.938
		c-0.488-0.654-1.11-1.059-1.865-1.208c-0.757-0.149-1.758-0.203-3.005-0.161l-2.062,0.1c-0.326-0.177-0.56-0.49-0.703-0.934
		c-0.042,0.156-0.085,0.304-0.127,0.467c-0.34,1.314-0.655,2.697-0.943,4.146c-0.291,1.45-0.547,2.902-0.771,4.358
		c-0.227,1.456-0.368,2.76-0.429,3.911c-0.235,0.361-0.777,0.528-1.622,0.499c-0.847-0.028-1.378-0.246-1.593-0.657
		c-0.134-1.174-0.298-2.365-0.49-3.579c-0.194-1.211-0.508-2.228-0.94-3.048c-0.771-1.307-1.833-2.356-3.182-3.149
		c-1.351-0.79-3.251-1.321-5.703-1.589l-6.195-0.678c-1.292-0.143-2.064-0.082-2.321,0.181c-0.259,0.261-0.463,1.092-0.615,2.491
		l-4.617,42.181c-0.251,2.29-0.402,4.124-0.455,5.502c-0.054,1.38,0.056,2.469,0.327,3.271c0.271,0.803,0.732,1.369,1.382,1.696
		c0.65,0.329,1.581,0.624,2.793,0.885l3.54,0.773c0.287,0.355,0.374,0.896,0.263,1.623c-0.113,0.729-0.344,1.201-0.694,1.422
		c-3.02-0.461-5.656-0.83-7.911-1.107c-2.256-0.281-4.447-0.536-6.577-0.77c-2.194-0.24-4.487-0.476-6.878-0.704
		c-2.392-0.229-5.239-0.461-8.544-0.692c-0.296-0.292-0.419-0.804-0.37-1.538c0.046-0.734,0.279-1.209,0.693-1.422l4.118-0.031
		c1.176,0,2.133-0.105,2.875-0.313c0.741-0.208,1.345-0.657,1.812-1.347s0.824-1.712,1.07-3.07c0.247-1.356,0.495-3.181,0.746-5.471
		l4.627-42.275c0.14-1.272,0.13-2.078-0.029-2.419c-0.159-0.338-0.884-0.579-2.174-0.72l-5.808-0.636
		c-2.26-0.248-4.278-0.161-6.053,0.256c-1.777,0.417-3.287,1.232-4.529,2.449c-0.809,0.813-1.511,1.718-2.109,2.715
		c-0.6,0.996-1.223,2.071-1.871,3.223c-0.552,0.263-1.157,0.276-1.817,0.043c-0.66-0.232-1.092-0.617-1.294-1.155
		c1.217-2.764,2.197-5.458,2.941-8.081c0.1-0.352,0.195-0.679,0.292-1.018l-1.338-0.459c-1.368-0.454-2.552-0.692-3.55-0.718
		c-1.001-0.023-1.828,0.267-2.484,0.872c-0.602,0.491-1.289,1.312-2.067,2.462c-0.778,1.153-1.583,2.469-2.414,3.949
		c-0.831,1.482-1.668,3.051-2.511,4.704c-0.844,1.654-1.629,3.229-2.358,4.724l-10.058,20.623c-0.562,1.15-1.179,2.415-1.852,3.796
		c-0.674,1.38-1.333,2.733-1.979,4.055c-0.646,1.325-1.234,2.566-1.766,3.732c-0.532,1.165-0.938,2.106-1.216,2.824
		c-0.458,0.347-1.178,0.529-2.162,0.548c-0.984,0.018-1.843-0.259-2.575-0.829c-0.236-0.259-0.555-1.678-0.957-4.258
		c-0.403-2.582-1.175-6.108-2.314-10.582l-8.605-33.891c-0.462-1.72-0.894-3.427-1.296-5.118c-0.403-1.691-0.797-3.253-1.181-4.688
		c-0.385-1.432-0.744-2.693-1.079-3.783c-0.336-1.088-0.61-1.935-0.821-2.537c-0.511,0.75-1.054,1.641-1.63,2.677
		c-0.578,1.036-1.063,1.957-1.456,2.762l-8.501,17.429c-0.729,1.497-1.487,3.085-2.271,4.768c-0.785,1.683-1.498,3.328-2.138,4.938
		c-0.642,1.61-1.169,3.062-1.582,4.355c-0.415,1.294-0.631,2.327-0.647,3.103c-0.043,0.977,0.29,1.85,0.996,2.621
		c0.707,0.773,1.615,1.501,2.728,2.185l2.411,1.497c0.124,0.487,0.023,1.026-0.301,1.616c-0.324,0.589-0.702,0.957-1.133,1.103
		c-2.162-1.198-4.125-2.243-5.891-3.14c-1.766-0.898-3.494-1.759-5.187-2.583c-1.692-0.826-3.376-1.63-5.053-2.411
		c-1.677-0.783-3.652-1.658-5.926-2.623c-0.152-0.43-0.103-0.94,0.15-1.53c0.249-0.589,0.605-0.986,1.066-1.188l2.707,0.893
		c1.25,0.396,2.391,0.65,3.421,0.761c1.029,0.111,1.915-0.151,2.658-0.786c0.601-0.49,1.283-1.298,2.047-2.42
		s1.583-2.432,2.458-3.928c0.873-1.497,1.731-3.071,2.575-4.726c0.842-1.653,1.629-3.228,2.358-4.725l11.194-22.951
		c0.981-2.013,1.639-3.508,1.971-4.486c0.331-0.977,0.432-1.994,0.3-3.058c-0.159-0.859-0.519-1.712-1.081-2.558
		c-0.564-0.844-1.475-1.68-2.732-2.506l-2.062-1.327c-0.124-0.488-0.003-1.069,0.363-1.744c0.365-0.677,0.81-0.959,1.334-0.846
		c1.926,1.084,3.903,2.136,5.934,3.162c2.027,1.024,3.771,1.892,5.229,2.603c2.567,1.252,4.682,2.178,6.341,2.772
		c-0.214,1.179-0.183,2.741,0.095,4.693c0.275,1.95,0.679,4.122,1.209,6.517c0.528,2.395,1.14,4.918,1.833,7.57
		c0.692,2.652,1.361,5.239,2.011,7.763l3.367,12.645c0.984,3.755,1.896,6.995,2.734,9.718c0.84,2.725,1.592,5.102,2.261,7.137
		c0.426-0.574,0.807-1.172,1.146-1.79c0.337-0.618,0.66-1.243,0.97-1.878l6.943-14.236c0.729-1.495,1.485-3.084,2.271-4.767
		c0.783-1.683,1.496-3.329,2.138-4.938c0.64-1.611,1.159-3.084,1.56-4.42c0.397-1.337,0.593-2.363,0.582-3.081
		c0.014-0.917-0.318-1.758-0.995-2.514c-0.678-0.759-1.674-1.564-2.99-2.421l-1.887-1.241c-0.183-0.516-0.105-1.082,0.234-1.701
		c0.337-0.618,0.707-0.971,1.111-1.06c2.161,1.197,4.124,2.243,5.891,3.14c1.765,0.897,3.523,1.771,5.274,2.626
		c1.691,0.825,3.288,1.588,4.79,2.282c1.339,0.623,2.766,1.238,4.255,1.847c0.296-0.984,0.58-1.905,0.846-2.739
		c0.429-0.34,0.744-0.529,0.944-0.572c0.265-0.035,0.555-0.002,0.871,0.095c0.315,0.099,0.53,0.221,0.646,0.36
		c0.073,0.524,0.238,0.961,0.493,1.311c0.256,0.35,0.665,0.636,1.229,0.857c0.563,0.224,1.343,0.406,2.341,0.546
		c0.995,0.143,2.301,0.301,3.914,0.478l37.074,4.058c2.839,0.311,4.803,0.429,5.888,0.354c1.086-0.074,1.906-0.564,2.463-1.47
		c0.415-0.211,0.755-0.334,1.021-0.37c0.329-0.027,0.633,0.036,0.908,0.196c0.276,0.159,0.468,0.34,0.577,0.546
		c-0.07,0.161-0.141,0.341-0.211,0.523c4.242-0.624,8.409-1.32,12.499-2.099l19.513-3.716c3.061-0.583,5.816-1.123,8.265-1.623
		c2.449-0.499,3.951-0.865,4.5-1.102c0.134,0.365,0.359,1.024,0.674,1.974c0.312,0.951,0.654,2.059,1.028,3.322
		c0.372,1.265,0.764,2.624,1.172,4.076c0.409,1.453,0.778,2.867,1.104,4.236c-0.094,0.54-0.503,0.911-1.224,1.112
		c-0.723,0.203-1.31,0.152-1.765-0.152c-1.008-1.826-2.034-3.31-3.076-4.446c-1.044-1.137-2.182-1.995-3.415-2.575
		c-1.234-0.579-2.632-0.883-4.188-0.913c-1.56-0.028-3.39,0.157-5.495,0.559l-7.367,1.401c-0.765,0.146-1.348,0.292-1.75,0.432
		c-0.404,0.144-0.678,0.342-0.829,0.597c-0.148,0.258-0.191,0.641-0.128,1.15c0.063,0.509,0.181,1.203,0.347,2.083l3.306,17.352
		c0.25,1.32,0.528,2.083,0.831,2.285c0.302,0.204,1.124,0.177,2.464-0.078l6.217-1.184c1.148-0.219,2.161-0.444,3.043-0.677
		c0.882-0.233,1.646-0.559,2.294-0.975c0.647-0.418,1.15-0.985,1.51-1.704c0.356-0.72,0.55-1.701,0.578-2.944l0.018-3.033
		c0.259-0.376,0.77-0.636,1.536-0.781c0.765-0.146,1.311-0.055,1.638,0.274c0.211,1.459,0.443,3.027,0.698,4.704
		c0.253,1.68,0.555,3.429,0.9,5.252c0.336,1.761,0.694,3.469,1.074,5.121c0.38,1.656,0.729,3.136,1.044,4.443
		c-0.17,0.489-0.639,0.807-1.402,0.951c-0.767,0.146-1.345,0.062-1.734-0.255l-1.209-2.702c-0.483-1.145-1.026-2.004-1.63-2.572
		c-0.604-0.569-1.269-0.932-1.991-1.088c-0.725-0.154-1.537-0.178-2.443-0.072c-0.904,0.109-1.93,0.271-3.078,0.489l-6.219,1.184
		c-1.339,0.256-2.112,0.534-2.318,0.833c-0.209,0.301-0.186,1.11,0.066,2.43l2.281,11.979c0.442,2.325,0.902,4.225,1.382,5.697
		c0.478,1.472,1.145,2.552,2.003,3.234c0.39,0.317,0.82,0.577,1.289,0.781c0.468,0.203,1.106,0.343,1.913,0.416
		c0.807,0.076,1.842,0.041,3.104-0.102c1.261-0.144,2.816-0.389,4.665-0.741c2.68-0.511,4.857-1.039,6.537-1.587
		c1.682-0.548,3.07-1.317,4.172-2.31c1.098-0.99,2.007-2.289,2.728-3.892c0.719-1.602,1.426-3.706,2.118-6.315
		c0.3-0.512,0.844-0.778,1.633-0.799c0.789-0.02,1.326,0.204,1.613,0.67C366.417,527.289,366.429,528.572,366.38,530.048z
		 M436.985,507.653c-1.898,0.854-3.73,1.728-5.497,2.622c-1.769,0.894-3.656,1.869-5.667,2.927
		c-2.127,1.119-4.059,2.152-5.794,3.104c-1.739,0.95-3.438,1.935-5.103,2.955c-0.579,0.017-1.046-0.279-1.402-0.889
		c-0.357-0.607-0.408-1.158-0.155-1.653l2.447-1.83c0.888-0.685,1.45-1.252,1.69-1.703c0.239-0.452,0.284-0.818,0.136-1.103
		c-0.358-0.68-1.785-2.206-4.281-4.581l-22.651-21.928c-1.321-1.257-2.592-2.449-3.811-3.581c-1.218-1.131-2.207-2.001-2.971-2.613
		l-0.085,0.045c0.043,0.918,0.178,2.222,0.405,3.908c0.229,1.688,0.486,3.506,0.777,5.449l5.083,32.038
		c0.224,1.402,0.441,2.479,0.656,3.234c0.214,0.756,0.427,1.332,0.635,1.728c0.179,0.34,0.527,0.555,1.052,0.64
		c0.522,0.088,1.388-0.114,2.596-0.605l2.851-1.066c0.437,0.133,0.839,0.518,1.212,1.151c0.371,0.639,0.386,1.189,0.046,1.658
		c-1.382,0.58-2.876,1.295-4.483,2.143c-1.609,0.846-3.377,1.738-5.302,2.681c-1.495,0.786-2.864,1.561-4.112,2.327
		c-1.248,0.764-2.733,1.601-4.458,2.507c-0.521-0.017-0.945-0.333-1.274-0.956c-0.326-0.624-0.421-1.152-0.283-1.587l2.365-1.569
		c0.975-0.657,1.751-1.481,2.329-2.474c0.58-0.991,0.781-2.489,0.606-4.494c-0.208-2.206-0.44-4.776-0.702-7.714
		c-0.262-2.935-0.671-6.606-1.229-11.014l-3.21-25.756c-0.359-2.776-0.661-5.022-0.904-6.739c-0.242-1.717-0.705-3.08-1.386-4.098
		c0.6-0.532,1.146-1.2,1.643-2.003c0.493-0.802,0.916-1.603,1.267-2.402c0.351-0.798,0.629-1.487,0.836-2.067
		c0.209-0.579,0.385-0.943,0.528-1.091c0.743-0.679,1.554-0.529,2.438,0.452c1.234,1.232,2.622,2.579,4.164,4.047
		c1.542,1.467,3.473,3.289,5.793,5.468l29.422,27.476c1.292,1.202,2.399,2.191,3.323,2.971c0.924,0.78,1.771,1.347,2.544,1.698
		c0.772,0.353,1.514,0.543,2.224,0.565c0.71,0.025,1.525-0.133,2.446-0.474l2.029-0.742c0.438,0.133,0.833,0.538,1.191,1.217
		C437.288,506.556,437.296,507.129,436.985,507.653z M491.047,453.722c-1.527,1.684-3.032,3.364-4.512,5.045
		c-1.481,1.681-2.982,3.454-4.499,5.319c-0.452,0.114-0.938-0.062-1.46-0.536c-0.569-0.517-0.862-0.999-0.882-1.457l1.493-1.932
		c0.691-0.951,1.159-1.777,1.402-2.475c0.245-0.699,0.203-1.438-0.126-2.219c-0.329-0.779-0.982-1.679-1.96-2.697
		c-0.977-1.018-2.319-2.301-4.026-3.85l-10.168-9.223c-0.521-0.473-0.936-0.826-1.241-1.06c-0.308-0.233-0.63-0.309-0.968-0.221
		s-0.704,0.326-1.099,0.713s-0.963,0.988-1.704,1.807l-15.439,17.021c-0.698,0.77-1.231,1.381-1.601,1.835
		c-0.368,0.456-0.579,0.854-0.634,1.2c-0.054,0.345,0.039,0.672,0.28,0.977c0.24,0.307,0.622,0.696,1.144,1.169l10.168,9.223
		c1.708,1.548,3.115,2.76,4.224,3.633c1.107,0.873,2.076,1.424,2.907,1.651c0.83,0.229,1.582,0.187,2.253-0.125
		c0.672-0.312,1.447-0.856,2.327-1.637l1.777-1.675c0.456-0.024,0.943,0.222,1.468,0.74c0.523,0.52,0.77,0.984,0.742,1.396
		c-3.326,3.382-6.473,6.707-9.438,9.977c-2.834,3.126-5.62,6.34-8.355,9.643c-0.409,0.068-0.896-0.132-1.462-0.604
		c-0.567-0.469-0.86-0.932-0.88-1.39l1.232-1.644c0.69-0.95,1.157-1.776,1.402-2.475c0.244-0.698,0.201-1.437-0.127-2.218
		c-0.33-0.78-0.981-1.68-1.959-2.698c-0.978-1.018-2.321-2.301-4.026-3.85l-26.168-23.733c-1.706-1.549-3.113-2.759-4.222-3.633
		c-1.108-0.872-2.078-1.424-2.909-1.651s-1.592-0.196-2.288,0.093c-0.694,0.291-1.458,0.847-2.291,1.67l-1.777,1.673
		c-0.456,0.027-0.945-0.22-1.469-0.738c-0.522-0.519-0.771-0.983-0.742-1.397c3.37-3.429,6.516-6.754,9.438-9.977
		c2.834-3.125,5.62-6.34,8.356-9.642c0.407-0.068,0.895,0.134,1.462,0.603c0.566,0.472,0.86,0.935,0.879,1.39l-1.231,1.644
		c-0.69,0.952-1.158,1.776-1.402,2.474c-0.245,0.699-0.191,1.427,0.158,2.184c0.352,0.756,1.017,1.644,1.993,2.661
		c0.979,1.018,2.319,2.301,4.026,3.85l8.248,7.48c0.523,0.475,0.946,0.815,1.274,1.024c0.327,0.211,0.65,0.284,0.967,0.221
		c0.316-0.062,0.684-0.302,1.1-0.713c0.417-0.41,0.973-1,1.671-1.771l15.439-17.021c0.741-0.817,1.286-1.44,1.632-1.872
		c0.348-0.429,0.549-0.817,0.603-1.163c0.055-0.346-0.052-0.659-0.312-0.941c-0.263-0.282-0.654-0.659-1.177-1.133l-8.248-7.48
		c-1.707-1.549-3.102-2.748-4.188-3.601c-1.084-0.852-2.021-1.417-2.807-1.692c-0.788-0.274-1.527-0.245-2.22,0.09
		c-0.694,0.336-1.501,0.919-2.426,1.745l-1.783,1.538c-0.498,0.073-1.01-0.149-1.532-0.668c-0.524-0.518-0.771-0.982-0.743-1.397
		c1.797-1.788,3.447-3.489,4.954-5.104c1.506-1.612,3.021-3.261,4.549-4.944c1.481-1.634,2.911-3.231,4.282-4.792
		c1.372-1.561,2.773-3.225,4.206-4.994c0.406-0.067,0.895,0.133,1.461,0.603c0.568,0.472,0.839,0.958,0.814,1.461l-1.166,1.571
		c-0.734,1.001-1.234,1.861-1.501,2.583c-0.267,0.724-0.235,1.475,0.095,2.256c0.327,0.779,0.982,1.679,1.959,2.696
		c0.978,1.019,2.319,2.301,4.026,3.85l26.167,23.734c1.707,1.548,3.115,2.758,4.223,3.632c1.109,0.874,2.056,1.45,2.843,1.725
		c0.786,0.276,1.526,0.246,2.22-0.091c0.692-0.334,1.479-0.893,2.359-1.671l1.451-1.313c0.499-0.074,1.011,0.148,1.533,0.667
		c0.523,0.519,0.77,0.984,0.741,1.396C496.809,447.511,493.881,450.597,491.047,453.722z M530.015,376.463
		c-0.399,0.926-0.789,1.833-1.175,2.729c-0.387,0.894-0.793,1.886-1.221,2.973c-0.427,1.088-0.95,2.417-1.566,3.987l-11.897,30.27
		c-0.474,1.21-0.884,2.34-1.228,3.389c-0.346,1.052-0.754,2.181-1.228,3.389c-0.12,0.304-0.743,0.407-1.876,0.31
		c-0.978-2.058-2.004-4.257-3.08-6.599c-1.073-2.339-2.157-4.701-3.25-7.084c-1.092-2.38-2.181-4.729-3.268-7.039
		c-1.087-2.309-2.102-4.451-3.044-6.428c-0.942-1.973-1.79-3.753-2.543-5.341c-0.751-1.585-1.355-2.851-1.809-3.797
		c-0.071-0.167-0.103-0.303-0.099-0.405c0.006-0.102-0.049-0.177-0.17-0.223c-0.058-0.024-0.381,0.095-0.964,0.353
		c-1.202,0.436-3.064,1.062-5.589,1.884c-2.522,0.822-5.451,1.8-8.784,2.931c-3.333,1.132-6.972,2.387-10.917,3.766
		c-3.946,1.379-7.961,2.801-12.043,4.266c-0.357-0.142-0.666-0.314-0.929-0.523c-0.263-0.207-0.39-0.587-0.377-1.142
		c0.926-2.356,1.859-4.639,2.797-6.853c0.938-2.211,1.893-4.557,2.866-7.034l8.191-20.845c0.689-1.752,1.235-3.141,1.64-4.169
		c0.428-1.087,0.691-1.978,0.792-2.67c0.101-0.693,0.069-1.229-0.092-1.606c-0.161-0.377-0.498-0.7-1.01-0.972
		c-0.095-0.456-0.024-0.899,0.213-1.33c0.237-0.429,0.463-0.74,0.678-0.936c2.656,0.415,5.392,0.759,8.207,1.028
		c2.818,0.271,5.119,0.407,6.904,0.411c0.477,0.537,0.651,1.145,0.521,1.827c-0.13,0.681-0.381,1.228-0.749,1.642
		c-0.917,0.058-2.078,0.213-3.482,0.462c-1.404,0.25-2.803,0.66-4.197,1.229c-1.534,0.584-2.875,1.852-4.023,3.807
		c-1.145,1.955-2.419,4.716-3.82,8.281l-5.13,13.05c-0.308,0.787,0.002,1.048,0.931,0.784l26.157-8.553
		c0.785-0.248,1.294-0.276,1.526-0.081c0.232,0.196,0.468,0.516,0.708,0.958l14.662,30.142c0.181,0.42,0.382,0.604,0.608,0.553
		c0.226-0.05,0.43-0.214,0.607-0.494c0.178-0.278,0.338-0.6,0.48-0.961c0.166-0.423,0.297-0.756,0.392-0.997l7.836-19.938
		c0.713-1.812,1.36-3.547,1.941-5.201s0.893-3.275,0.932-4.865c0.041-1.588-0.271-3.157-0.934-4.709
		c-0.663-1.551-1.913-3.141-3.749-4.77c0.119-0.649,0.356-1.254,0.713-1.812c0.357-0.557,0.839-0.822,1.446-0.793
		c1.18,0.674,2.413,1.472,3.699,2.396c1.288,0.925,2.568,1.864,3.844,2.818c1.275,0.955,2.471,1.896,3.586,2.821
		c1.114,0.927,2.058,1.717,2.832,2.369C530.903,374.423,530.413,375.538,530.015,376.463z M542.078,338.312l-65.526-8.23l0.84-7.293
		l66.121,6.639L542.078,338.312z M478.297,311.713l0.408-7.328l66.397,2.727l-0.909,8.953L478.297,311.713z"/>
	<path fill="#222221" d="M482.535,114.852c-50.522-49.95-117.693-77.458-189.139-77.458S154.78,64.902,104.257,114.852
		c-50.532,49.958-78.361,116.385-78.361,187.042c0,70.657,27.829,137.083,78.361,187.042
		c50.522,49.949,117.693,77.458,189.139,77.458s138.616-27.509,189.139-77.458c50.532-49.959,78.361-116.385,78.361-187.042
		C560.896,231.237,533.067,164.811,482.535,114.852z M293.396,560.394c-144.191,0-261.5-115.963-261.5-258.5
		c0-142.538,117.309-258.5,261.5-258.5s261.5,115.962,261.5,258.5C554.896,444.431,437.587,560.394,293.396,560.394z"/>
	<path fill="#222221" d="M293.271,127.47c-96.978,0-175.875,78.015-175.875,173.908s78.897,173.909,175.875,173.909
		c96.978,0,175.875-78.016,175.875-173.909S390.249,127.47,293.271,127.47z M293.271,470.287
		c-94.221,0-170.875-75.772-170.875-168.909c0-93.136,76.654-168.908,170.875-168.908s170.875,75.772,170.875,168.908
		C464.146,394.515,387.492,470.287,293.271,470.287z"/>
	<path fill="#019557" d="M275.146,409.624c-5.564,1.818-25.02,4.442-28-1c-14.424-2.874-25.808-9.855-31-20
		c-18.83-36.786,23.98-69.46,51-77c0.857-3.19-1.574-3.093-2-5c-6.265,3.037-8.559-4.14-11-8c40.595-37.738,85.325-71.342,130-105
		c-7.705-9.629-17.998-16.668-31-21c-4.309-5.691-7.588-12.412-14-16c-13.054,10.57-29.017,7.38-33,23
		c-1.139,4.464,1.517,9.992,0,16c-1.318,5.225-8.039,11.313-14,16c-15.121,11.889-42.902,23.17-59,36
		c-12.164,9.694-22.026,21.797-20,44c-18.075,23.591-55.666,27.668-76,49c22.327,72.01,74.066,119.928,165,120
		c1-28.068,0.604-53.346,1-85C297.329,389.432,291.224,404.369,275.146,409.624z"/>
	<path fill="#D98A1C" d="M297.146,200.624c-0.073-0.125-0.157-0.239-0.231-0.363c-0.205,0.377-0.409,0.755-0.632,1.113
		C296.571,201.125,296.866,200.888,297.146,200.624z"/>
	<path fill="#0975A7" d="M303.146,274.624c7.748-1.252,12.891-5.109,19-8c21.248-16.419,42.342-32.992,66-47
		c3.65-6.206,6.851-13.025,15-16c6.346-2.316,18.137-0.055,15-10c-10.188,0.945-18.75,8.545-27,14
		c-26.504,17.527-51.637,36.588-77,54C311.855,267.333,305.207,268.685,303.146,274.624z"/>
	<path fill="#0975A7" d="M430.146,214.624c-1.57-4.43-4.89-7.109-10-8c2.4,4.257,1.402,3.727-1,7c0.552,4.115,6.413,2.92,8,6
		c-1.891,6.443-5.721,10.946-8,17c4.564,0.564,6.228-1.771,11-1c-0.857-3.19,1.574-3.093,2-5c1.619-8.285-3.264-10.069-5-15
		C427.314,214.459,428.727,214.538,430.146,214.624z"/>
	<path fill="#D67C1C" d="M193.146,220.624c-0.957-19.675-24.28-8.898-34-10C161.974,227.964,181.553,216.687,193.146,220.624z"/>
	<path fill="#0975A7" d="M417.146,215.624c-3.373-3.195-11.566-2.354-14,1c-0.438,3.438,0.395,5.605,1,8
		c1.873,0.222,6.627,2.578,8,0c-2.871-2.614,0.936-7.008,4-7C416.925,217.403,417.308,216.786,417.146,215.624z"/>
	<path fill="#019557" d="M412.146,224.624c4.196-0.17,5.794-3.534,4-7C413.082,217.616,409.275,222.01,412.146,224.624z"/>
	<path fill="#019557" d="M371.146,251.624c7.875-7.459,25.085-5.582,33-13c-9.184-2.483-16.123-7.211-16-19
		c-23.658,14.008-44.752,30.581-66,47C340.278,263.423,351.687,253.499,371.146,251.624z"/>
	<path fill="#019557" d="M430.146,235.624c1.165,0.168,1.086,1.58,1,3c2.391,0.609,7.256-1.256,8,1c-0.591,4.258,0.719,6.614,1,10
		c-12.24,4.093-28.205,4.462-37,12c8.957-3.377,20.02-4.646,29-8c0.84,1.16,1.319,2.682,1,5c1.873-0.222,6.627-2.578,8,0
		c-0.405,5.404,0.034,9.965,2,13c-18.908,7.092-41.741,10.258-58,20c3.124-0.457,3.197,2.137,3,5c3.705,0.582,5.797-3.084,8-1
		c0.145,9.347,2.455,12.348,0,18c-6.2,0.826-17.166,8.234-22,1c-2.656-0.011-5.711,0.378-7-1c-2.256,0.745-0.391,5.609-1,8
		c-6.07,1.264-13.512,1.154-16,6c2.812-0.146,2.885,2.449,3,5c3.15,0.483,2.264-3.069,6-2c3.953,3.298,1.897,7.642,2,12
		c0.722,30.669-1.221,77.455,1,103c3.617-3.05,10.923-2.41,11-9c-3.042-2.502-6.821,1.949-8-2c-2.672-33.986,2.152-69.027-1-101
		c2.811-1.522,1.534-7.133,5-8c4.713-1.287,9.441-2.559,14-4c0.84,1.161,1.319,2.681,1,5c3.815,0.691,4.815-4.065,8-1
		c0.469,31.224,0.174,69.133-2,103c3.729-1.938,6.328-5.006,10-7c2.796-33.687,1.14-68.178,2-102c5.671-1.996,10.116-5.218,17-6
		c1.874,1.904,0.109,2.513,0,5c3.826,0.493,3.193-3.474,8-2c0.568,21.264-0.398,49.58,0,74c28.04-30.456,37.607-107.311,17-154
		c-5.305-0.695-7.192-4.808-12-6C431.72,232.531,429.289,232.434,430.146,235.624z M409.146,305.624c-2.333,0-4.667,0-7,0
		c-2.077-3.59-0.52-10.814-1-16c6.267-2.733,11.28-6.72,20-7c-0.09,2.729,1.666,2.013,0,4c3.709,0.709,4.291-1.709,8-1
		c2.396,5.562-2.623,15.248,3,19C424.953,304.597,412.445,314.304,409.146,305.624z"/>
	<path fill="#019557" d="M391.146,264.624c-4.019-0.352-7.317,0.016-8,3C387.477,268.288,389.339,266.484,391.146,264.624z"/>
	<path fill="#019557" d="M374.146,269.624c-6.407-0.74-8.728,2.605-12,5c4.81-0.523,8.387-2.28,12-4
		C374.146,270.29,374.146,269.958,374.146,269.624z"/>
	<path fill="#0975A7" d="M429.146,285.624c-3.709-0.709-4.291,1.709-8,1c-1.388,6.79-1.247,11.745,3,15
		c-5.592,0.742-10.172,2.494-15,4c3.299,8.68,15.807-1.027,23-1C426.523,300.872,431.542,291.186,429.146,285.624z"/>
	<path fill="#019557" d="M384.146,292.624c0-0.334,0-0.666,0-1c-11.458,0.209-18.316,5.017-26,9c2.487,0.15,0.293,3.387,0,4
		c4.449,0.783,6.002-1.332,10-1C366.412,292.89,378.939,296.417,384.146,292.624z"/>
	<path fill="#0975A7" d="M374.146,314.624c4.834,7.234,15.8-0.174,22-1c2.455-5.652,0.145-8.653,0-18c-2.203-2.084-4.295,1.582-8,1
		C392.722,307.994,384.183,312.558,374.146,314.624z"/>
	<path fill="#019557" d="M356.146,300.624c0-0.333,0-0.667,0-1c-2.955,0.711-7.059,0.275-8,3
		C352.06,303.204,353.953,301.764,356.146,300.624z"/>
	<path fill="#0975A7" d="M366.146,321.624c0.609-2.391-1.256-7.255,1-8c-2.336-2.836,0.823-6.582,1-10
		c-3.998-0.332-5.551,1.783-10,1c1.605,3.528-0.835,7.397,0,13c-5.454,0.88-9.132,3.534-15,4c0,0.333,0,0.667,0,1
		c0.008,2.992,1.797,4.202,4,5c1,0,2,0,3,0C352.634,322.778,360.076,322.888,366.146,321.624z"/>
	<path fill="#019557" d="M343.146,322.624c-2.348,0.319-3.754,1.58-7,1c-1.179-7.415-3.988-15.193,3-18
		c-7.139,0.528-12.088,3.246-17,6c0.013,1.987,2.729,1.271,2,4c3.023,0.311,7.777-1.11,8,2c-0.842,3.825-1.307,8.027-1,13
		c-2.497,2.503-9.459,0.542-10,5c-0.319,2.319,0.16,3.839,1,5c2.162-0.838,3.411-2.589,7-2c3.8,31.344-3.323,68.724,0,105
		c-6.513,0.02-6.95,8.899-10,15c9.562-0.104,15.262-4.071,24-5c0.221-0.779,0.838-1.162,2-1c-1.769-4.897-0.481-12.853-3-17
		c-4.674,4.136,0.43,11.848-5,15c-4.565-36.795-0.908-76.88-2-118c3.648-2.019,9.459-1.874,12-5
		C344.943,326.826,343.154,325.616,343.146,322.624z"/>
	<path fill="#019557" d="M309.146,331.624c-4.379-0.379-5.142,2.858-9,3c1.216-4.45,1.087-10.247,1-16c1.891,0.224,2.206-1.127,4-1
		c-0.014-1.027-2.645-1.516-4-1c-11.994,4.562-27.761,12.453-38,18c7.273,1.394,16.832,0.501,21,5c11.725,1.942,15.699,11.634,18,23
		c0.765-9.235-3.284-23.284,7-23c0-0.333,0-0.667,0-1C306.455,335.421,311.568,335.098,309.146,331.624z"/>
	<path fill="#0975A7" d="M427.146,316.624c-4.807-1.474-4.174,2.493-8,2c0,4,0,8,0,12c-0.627,3.039,1.28,8.613-1,10
		c1.689,19.672,0.104,41.185-1,61c4.049,0.756,7.763-6.69,10-11C426.748,366.204,427.714,337.888,427.146,316.624z"/>
	<path fill="#0975A7" d="M392.146,325.624c-3.185-3.065-4.185,1.691-8,1c-0.391,35.411-1.672,73.232-1,107
		c3.133-0.867,5.522-2.478,7-5C392.32,394.757,392.615,356.848,392.146,325.624z"/>
	<path fill="#0975A7" d="M361.146,342.624c-0.103-4.358,1.953-8.702-2-12c-3.736-1.069-2.85,2.483-6,2c0,33.667,0,67.333,0,101
		c8.123-1.456,3.143,10.191,6,14c1.428-0.239,1.687-1.646,3-2C359.925,420.079,361.868,373.293,361.146,342.624z"/>
	<path fill="#0975A7" d="M329.146,443.624c-3.323-36.276,3.8-73.656,0-105c-3.589-0.589-4.838,1.162-7,2
		c-1.133,33.533-2.619,66.714-2,102c-2.409,0.409-2.174-1.826-5-1c-0.201,7.466-4.575,10.758-5,18c2.714-0.619,7.937,1.27,9-1
		C322.196,452.523,322.633,443.644,329.146,443.624z"/>
	<path fill="#0975A7" d="M273.146,350.624c0-0.333,0-0.667,0-1c-8.216-6.079-17.456,3.522-15,11c7.944,1.611,6.762-5.905,12-7
		C270.706,352.184,271.706,351.184,273.146,350.624z"/>
	<path fill="#019557" d="M244.146,391.624c16.928,4.53,28.077-5.209,32-17c-3.266,1.531-11.619,4.189-13-1
		c-13.887,0.375-19.873-10.746-17-24C234.096,358.448,232.375,381.744,244.146,391.624z"/>
	<path fill="#019557" d="M274.146,350.624c-0.333,0-0.667,0-1,0c-1.44,0.56-2.44,1.56-3,3c1.713,1.286,2.713,3.286,3,6
		c1.479-0.521,2.521-1.479,4-2C276.789,354.647,275.553,352.55,274.146,350.624z"/>
	<path fill="#0975A7" d="M276.146,374.624c2.421-3.189,2.906-12.714,1-17c-1.479,0.521-2.521,1.479-4,2
		c0.561,8.561-4.494,11.505-10,14C264.527,378.813,272.88,376.155,276.146,374.624z"/>
	<path fill="#019557" d="M353.146,433.624c0,5,0,10,0,15c3.056,0.723,3.645-1.022,6-1
		C356.289,443.815,361.269,432.168,353.146,433.624z"/>
	<path fill="#019557" d="M348.146,451.624c3.485-0.515,1.467-6.533,2-10c-0.333,0-0.667,0-1,0
		C347.372,443.517,348.417,448.229,348.146,451.624z"/>
	<path fill="#D67C1C" d="M252.146,173.624c15.725-5.621,5.378-25.84-3-32C235.943,151.336,253.13,161.007,252.146,173.624z"/>
	<path fill="#D67C1C" d="M272.146,176.624c18.643-2.057,9.541-20.908,10-34C265.017,146.247,274.42,161.724,272.146,176.624z"/>
	<path fill="#D67C1C" d="M232.146,177.624c18.238-10.117-11.785-36.79-15-21C214.992,167.205,233.375,165.32,232.146,177.624z"/>
	<path fill="#FFFFFF" d="M419.146,205.624c-2.326,2.04-2.768,6.561-3,8c-4.688-4.156-12.147-0.538-15,3
		c-0.438,3.438,0.395,5.605,1,8c3.674,1.915,8.174,3.305,12,2c5.384-1.836,3.468-7.518,6-9c1.904,0.43,2.513,2.154,5,2
		c-1.363,7.97-7.231,11.436-9,19c5.292,0.293,8.265-1.735,13-2c-1.098,4.447,2.417,7.289,0,10c-63.022,12.978-115.018,36.982-169,59
		c0.178-3.512-3.378-3.289-4-6l130-107c-12.57-15.43-36.114-19.886-45-39c-12.58,10.502-28.383,8.102-35,22
		c-2.725,5.724,0.471,14.211-3,23c-1.853,4.691-10.422,10.898-16,15c-27.884,20.508-78.428,30.474-75,77
		c-9.524,11.771-21.43,17.279-38,25c-8.848,4.122-35.971,16.139-38,25c-2.754,12.025,13.654,37.118,20,47
		c25.937,40.391,71.533,71.555,127,75c55.677,3.459,90.961-18.536,120-42c-0.09-33.165,0.499-64.13,0-99
		c4.076-2.276,11.832-6.144,15-6c-2.51,29.157,1.385,70.05-4,93c37.879-30.508,56.688-115.021,31-173c-3.363-2.637-8.773-3.227-11-7
		c0.882-9.377-5.788-8.263-2-16C428.413,210.126,424.251,203.503,419.146,205.624z M412.146,224.624c-1.373,2.578-6.127,0.222-8,0
		c-0.605-2.395-1.438-4.562-1-8c2.434-3.354,10.627-4.195,14-1c0.162,1.162-0.221,1.779-1,2
		C417.94,221.09,416.342,224.454,412.146,224.624z M432.146,230.624c4.808,1.192,6.695,5.305,12,6
		c20.607,46.689,11.04,123.544-17,154c-2.237,4.31-5.951,11.756-10,11c1.104-19.815,2.689-41.328,1-61c2.28-1.387,0.373-6.961,1-10
		c0-4,0-8,0-12c0.109-2.487,1.874-3.096,0-5c-6.884,0.782-11.329,4.004-17,6c-0.86,33.822,0.796,68.313-2,102
		c-3.672,1.994-6.271,5.062-10,7c-1.478,2.522-3.867,4.133-7,5c-0.672-33.768,0.609-71.589,1-107c0.319-2.319-0.16-3.839-1-5
		c-4.559,1.441-9.287,2.713-14,4c-3.466,0.867-2.189,6.478-5,8c3.152,31.973-1.672,67.014,1,101c1.179,3.949,4.958-0.502,8,2
		c-0.077,6.59-7.383,5.95-11,9c-1.313,0.354-1.572,1.761-3,2c-2.355-0.022-2.944,1.723-6,1c0-5,0-10,0-15c0-33.667,0-67.333,0-101
		c-0.115-2.551-0.188-5.146-3-5c-1,0-2,0-3,0c-2.541,3.126-8.352,2.981-12,5c1.092,41.12-2.565,81.205,2,118
		c5.43-3.152,0.326-10.864,5-15c1.498-1.503,1.789-4.211,4-5c4.848,0.152,3.929,6.071,4,11c-0.533,3.467,1.485,9.485-2,10
		c-1.904,0.429-2.513,2.154-5,2c-8.738,0.929-14.438,4.896-24,5c-1.063,2.27-6.286,0.381-9,1c0.425-7.242,4.799-10.534,5-18
		c2.826-0.826,2.591,1.409,5,1c-0.619-35.286,0.867-68.467,2-102c-0.84-1.161-1.319-2.681-1-5c-5.239-0.239-7.566,2.434-12,3
		c0,0.333,0,0.667,0,1c-10.284-0.284-6.235,13.765-7,23c1.969,2.698,0.596,8.738,1,13c-0.396,31.654,0,56.932-1,85
		c-90.934-0.072-142.673-47.99-165-120c20.334-21.332,57.925-25.409,76-49c-2.026-22.203,7.836-34.306,20-44
		c16.098-12.83,43.879-24.111,59-36c5.961-4.687,12.682-10.775,14-16c1.517-6.008-1.139-11.536,0-16c3.983-15.62,19.946-12.43,33-23
		c6.412,3.588,9.691,10.309,14,16c13.002,4.332,23.295,11.371,31,21c-44.675,33.658-89.405,67.262-130,105
		c2.441,3.86,4.735,11.037,11,8c50.541-24.125,104.301-45.033,165-59c3.118-2.426,0.602-4.271,1-9c0.086-1.42,0.165-2.832-1-3
		c-4.772-0.771-6.436,1.564-11,1c2.279-6.054,6.109-10.557,8-17c-1.587-3.08-7.448-1.885-8-6c2.402-3.273,3.4-2.743,1-7
		c5.11,0.891,8.43,3.57,10,8c-1.419-0.086-2.832-0.165-3,1C428.882,220.555,433.765,222.339,432.146,230.624z"/>
	<path fill="#D67C1C" d="M310.146,155.624c-7.756-0.089-11.597,3.736-15,8c1.188,9.854-1.841,15.492-4,22
		C307.751,185.896,304.746,166.557,310.146,155.624z"/>
	<path fill="#D67C1C" d="M216.146,186.624c10.467-17.949-23.169-28.156-22-14C194.812,180.685,212.568,178.911,216.146,186.624z"/>
	<path fill="#D67C1C" d="M215.146,192.624c-20.933,18.162-28.31,61.725-6,81c2.103-4.564,4.967-8.366,6-14
		c-2.353-6.209-9.453-16.429-4-24c1.717,7.95,3.242,16.092,10,19c6.205-5.529-1.721-11.267-2-18c-0.396-9.55,6.879-27.041,14-33
		c9.307-7.787,26.189-10.889,42-7c-31.161-2.982-54.075,17.302-42,45c18.048-2.619,18.209-23.125,40-22
		c7.425-6.371,17.831-9.761,23.137-18.25c0.224-0.358,0.427-0.736,0.632-1.113c0.454-0.835,0.878-1.7,1.231-2.637
		C278.898,172.929,237.053,173.616,215.146,192.624z"/>
	<path fill="#D67C1C" d="M202.146,201.624c2.438-15.932-17.113-18.87-28-15C172.368,202.735,194.922,194.515,202.146,201.624z"/>
	<path fill="#FFFFFF" d="M301.146,276.624c23.632-9.223,55.497-18.8,78-28c9.365-3.828,22.701-1.986,29-11
		c-11.873-1.568-19.247-8.222-18-18c2.009-15.748,24.479-12.036,31-23c-1.348-2.319-2.842-4.492-5-6
		c-37.125,20.875-68.748,47.252-104,70C311.125,268.603,301.066,267.544,301.146,276.624z M391.146,207.624
		c8.25-5.455,16.812-13.055,27-14c3.137,9.945-8.654,7.684-15,10c-8.149,2.975-11.35,9.794-15,16c-0.123,11.789,6.816,16.517,16,19
		c-7.915,7.418-25.125,5.541-33,13c-19.459,1.875-30.868,11.799-49,15c-6.109,2.891-11.252,6.748-19,8
		c2.061-5.939,8.709-7.291,11-13C339.509,244.212,364.642,225.151,391.146,207.624z"/>
	<path fill="#FFFFFF" d="M391.146,264.624c-1.807,1.86-3.669,3.664-8,3c-3.92,0.08-6.237,1.763-9,3c-3.613,1.72-7.19,3.477-12,4
		c-31.972,12.028-64.636,23.365-95,37c-27.02,7.54-69.83,40.214-51,77c5.192,10.145,16.576,17.126,31,20
		c37.871,5.717,60.257-44.096,37-69c-4.168-4.499-13.727-3.606-21-5c-8.128,2.539-13.571,7.762-17,15
		c-2.873,13.254,3.113,24.375,17,24c5.506-2.495,10.561-5.439,10-14c-0.287-2.714-1.287-4.714-3-6c-5.238,1.095-4.056,8.611-12,7
		c-2.456-7.478,6.784-17.079,15-11c0,0.333,0,0.667,0,1c0.333,0,0.667,0,1,0c1.407,1.926,2.643,4.023,3,7
		c1.906,4.286,1.421,13.811-1,17c-3.923,11.791-15.072,21.53-32,17c-9.376-3.564-16.146-10.008-17-20
		c-2.96-34.628,42.562-46.681,66-58c23.082-3.406,40.672-17.115,62-19c24.867-9.8,50.875-18.459,79-25c-0.493-3.507-1.491-6.51-1-11
		c0.319-2.318-0.16-3.84-1-5c-8.98,3.354-20.043,4.623-29,8C397.654,261.132,396.378,264.856,391.146,264.624z"/>
	<path fill="#D67C1C" d="M190.146,240.624c-6.41-18.141-23.977-2.004-35,1C164.916,256.037,176.424,241.601,190.146,240.624z"/>
	<path fill="#D67C1C" d="M194.146,260.624c-12.199-14.514-25.29,5.267-32,12C178.209,283.761,181.933,262.657,194.146,260.624z"/>
	<path fill="#D67C1C" d="M190.146,298.624c4.955-6.461,9.818-18.068,13-23c-21.155-4.155-17.726,16.273-27,24
		C181.372,299.85,186.129,299.607,190.146,298.624z"/>
	<path fill="#FFFFFF" d="M421.146,286.624c1.666-1.987-0.09-1.271,0-4c-8.72,0.28-13.733,4.267-20,7c0.48,5.186-1.077,12.41,1,16
		c2.333,0,4.667,0,7,0c4.828-1.506,9.408-3.258,15-4C419.899,298.369,419.758,293.414,421.146,286.624z M403.146,304.624
		c-4.304-12.744,4.922-20.333,17-20c0.809,4.964-4.881,14.314,1,15C417.083,303.229,409.177,302.989,403.146,304.624z"/>
	<path fill="#0975A7" d="M343.146,453.624c2.487,0.154,3.096-1.571,5-2c0.271-3.396-0.774-8.107,1-10c0.333,0,0.667,0,1,0
		c-0.071-4.929,0.848-10.848-4-11c-2.211,0.789-2.502,3.497-4,5c2.519,4.147,1.231,12.103,3,17
		C343.984,452.462,343.367,452.845,343.146,453.624z"/>
	<path fill="#0975A7" d="M284.146,339.624c23.257,24.904,0.871,74.717-37,69c2.98,5.442,22.436,2.818,28,1
		c16.078-5.255,22.183-20.192,28-34c-0.404-4.262,0.969-10.302-1-13C299.845,351.258,295.871,341.566,284.146,339.624z"/>
	<path fill="#0975A7" d="M267.146,311.624c30.364-13.635,63.028-24.972,95-37c3.272-2.395,5.593-5.74,12-5c0,0.334,0,0.666,0,1
		c2.763-1.237,5.08-2.92,9-3c0.683-2.984,3.981-3.352,8-3c5.232,0.232,6.508-3.492,12-3c8.795-7.538,24.76-7.907,37-12
		c-0.281-3.386-1.591-5.742-1-10c-0.744-2.256-5.609-0.391-8-1c-0.398,4.729,2.118,6.574-1,9c-60.699,13.967-114.459,34.875-165,59
		C265.572,308.531,268.003,308.434,267.146,311.624z"/>
	<path fill="#0975A7" d="M434.146,269.624c-28.125,6.541-54.133,15.2-79,25c-21.328,1.885-38.918,15.594-62,19
		c-23.438,11.319-68.96,23.372-66,58c0.854,9.992,7.624,16.436,17,20c-11.771-9.88-10.05-33.176,2-42
		c3.429-7.238,8.872-12.461,17-15c10.239-5.547,26.006-13.438,38-18c1.355-0.516,3.986-0.027,4,1c4.557-3.11,11.007-4.326,17-6
		c4.912-2.754,9.861-5.472,17-6c3.676-0.324,5.533-2.467,9-3c0.941-2.725,5.045-2.289,8-3c0,0.333,0,0.667,0,1c0.667,0,1.333,0,2,0
		c7.684-3.983,14.542-8.791,26-9c0,0.334,0,0.666,0,1c0.609-0.057,1.184-0.149,1-1c16.259-9.742,39.092-12.908,58-20
		c-1.966-3.035-2.405-7.596-2-13c-1.373-2.578-6.127-0.222-8,0C432.655,263.114,433.653,266.117,434.146,269.624z"/>
	<path fill="#FFFFFF" d="M301.146,318.624c0.087,5.753,0.216,11.55-1,16c3.858-0.142,4.621-3.379,9-3c5.773-0.561,9.492-3.175,14-5
		c-1.199-4.183-0.691-7.411,1-11c0.729-2.729-1.987-2.013-2-4c-5.993,1.674-12.443,2.89-17,6
		C303.352,317.497,303.037,318.848,301.146,318.624z M321.146,326.624c-7.465,1.644-10.363,2.803-17,4
		c-1.729-2.271-2.413-5.587-2-10c6.07-2.93,12.048-5.952,20-7C321.888,318.032,320.548,321.359,321.146,326.624z"/>
	<path fill="#0975A7" d="M331.146,330.624c-0.307-4.973,0.158-9.175,1-13c-0.223-3.11-4.977-1.689-8-2
		c-1.691,3.589-2.199,6.817-1,11c-4.508,1.825-8.227,4.439-14,5c2.422,3.474-2.691,3.797,0,7c4.434-0.566,6.761-3.239,12-3
		C321.687,331.166,328.649,333.127,331.146,330.624z"/>
	<path fill="#FFFFFF" d="M384.146,292.624c-5.207,3.793-17.734,0.266-16,11c-0.177,3.418-3.336,7.164-1,10
		c1.289,1.378,4.344,0.989,7,1c10.037-2.066,18.576-6.63,14-18c0.197-2.863,0.124-5.457-3-5
		C385.33,292.475,384.755,292.567,384.146,292.624z M386.146,294.624c-0.872,4.872,1.367,6.633,2,10c-3.457,5.876-9.69,8.977-20,8
		c0.428-4.906,1.338-9.328,2-14C375.714,297.526,379.712,294.856,386.146,294.624z"/>
	<path fill="#FFFFFF" d="M358.146,300.624c-0.667,0-1.333,0-2,0c-2.193,1.14-4.086,2.58-8,2c-3.467,0.533-5.324,2.676-9,3
		c-6.988,2.807-4.179,10.585-3,18c3.246,0.58,4.652-0.681,7-1c0-0.333,0-0.667,0-1c5.868-0.466,9.546-3.12,15-4
		c-0.835-5.603,1.605-9.472,0-13C358.439,304.011,360.633,300.774,358.146,300.624z M356.146,316.624
		c-5.819,1.848-12.479,2.854-17,6c-2.66-2.673-3.104-7.563-3-13c5.83-2.836,11.781-5.552,19-7
		C358.446,306.481,355.932,310.837,356.146,316.624z"/>
	<polygon fill="#0975A7" points="108.562,287.727 42.229,283.727 42.229,292.727 108.229,295.06 	"/>
	<polygon fill="#0975A7" points="110.923,271.052 45.123,261.758 44.402,270.729 110.004,278.335 	"/>
	<polygon fill="#0975A7" points="113.94,254.407 49.582,237.849 47.868,246.684 112.216,261.542 	"/>
	<polygon fill="#0975A7" points="118.769,237.801 56.017,215.93 53.571,224.592 116.455,244.768 	"/>
	<polygon fill="#0975A7" points="108.225,304.384 41.827,307.11 42.735,316.064 108.633,311.713 	"/>
	<polygon fill="#0975A7" points="109.539,322.789 43.417,329.427 44.852,338.312 110.378,330.082 	"/>
	<polygon fill="#0975A7" points="478.701,295.06 544.7,292.728 544.7,283.728 478.368,287.727 	"/>
	<polygon fill="#0975A7" points="476.926,278.335 542.528,270.73 541.807,261.758 476.006,271.052 	"/>
	<polygon fill="#0975A7" points="474.713,261.542 539.062,246.685 537.348,237.849 472.99,254.407 	"/>
	<polygon fill="#0975A7" points="470.475,244.768 533.359,224.592 530.913,215.931 468.161,237.801 	"/>
	<polygon fill="#0975A7" points="478.706,304.385 478.297,311.713 544.194,316.064 545.103,307.111 	"/>
	<polygon fill="#0975A7" points="476.551,330.082 542.078,338.312 543.512,329.428 477.391,322.789 	"/>
	<path d="M116.407,147.354l19.987,41.614c0.201,0.461,0.451,1.015,0.751,1.658c0.301,0.645,0.612,1.301,0.937,1.967
		c0.324,0.667,0.624,1.266,0.896,1.793c0.273,0.529,0.481,0.86,0.626,0.996c0.481,0.453,0.961,0.496,1.439,0.131
		c0.479-0.365,1.237-1.1,2.278-2.207l30.58-32.532c1.266-1.346,2.136-2.294,2.608-2.847c0.474-0.551,0.397-1.121-0.228-1.709
		c-0.289-0.271-1.177-0.675-2.664-1.214c-1.487-0.536-3.415-1.329-5.781-2.377l-40.413-18.15c-2.935-1.309-5.409-2.436-7.423-3.378
		c-2.014-0.94-3.826-1.807-5.438-2.598c-1.188-0.663-2.023-0.544-2.51,0.357c-0.088,0.19-0.122,0.588-0.104,1.194
		c0.019,0.607-0.004,1.354-0.07,2.243c-0.066,0.89-0.188,1.84-0.367,2.848c-0.18,1.01-0.535,1.942-1.069,2.8
		c0.914,0.859,1.824,1.986,2.73,3.382C114.082,142.723,115.158,144.732,116.407,147.354z M123.373,145.002
		c1.825,0.855,3.589,1.675,5.294,2.463l28.642,13.472c3.221,1.488,5.12,2.503,5.697,3.046c0.289,0.271,0.452,0.675,0.493,1.21
		c0.039,0.536-0.37,1.262-1.229,2.174c-1.806,2.019-3.329,3.711-4.57,5.079c-1.241,1.37-2.494,2.751-3.759,4.144
		c-1.264,1.394-2.259,2.476-2.981,3.244c-1.447,1.539-2.694,2.746-3.74,3.617c-1.047,0.874-1.663,1.313-1.851,1.318
		c-0.681,0.629-1.276,0.997-1.787,1.105c-0.511,0.11-0.885,0.052-1.126-0.175c-0.336-0.316-0.725-0.794-1.164-1.436
		c-0.44-0.639-1.009-1.648-1.705-3.028l-15.318-28.802c-0.943-1.791-1.897-3.595-2.863-5.409c-0.922-1.73-1.601-3.02-2.051-3.896
		C120.297,143.565,121.628,144.187,123.373,145.002z"/>
	<path d="M155.959,94.655l2.326-0.868c1.104-0.443,2.04-0.662,2.807-0.657c0.769,0.006,1.499,0.282,2.193,0.832
		s1.394,1.463,2.098,2.735c0.705,1.273,1.561,2.985,2.567,5.138l15.432,33.002c1.007,2.152,1.773,3.908,2.298,5.265
		c0.526,1.357,0.791,2.472,0.799,3.343c0.006,0.871-0.241,1.588-0.743,2.15s-1.263,1.156-2.283,1.778l-1.8,1.06
		c-0.159,0.44-0.063,0.997,0.288,1.669c0.352,0.674,0.731,1.06,1.144,1.159c3.862-2.024,7.735-3.944,11.622-5.763
		c4.065-1.9,8.322-3.782,12.771-5.644c0.187-0.379,0.135-0.918-0.156-1.621c-0.292-0.7-0.657-1.13-1.096-1.291l-2.326,0.869
		c-1.132,0.385-2.074,0.588-2.828,0.612s-1.478-0.238-2.172-0.787c-0.694-0.55-1.394-1.461-2.098-2.735
		c-0.705-1.272-1.561-2.986-2.567-5.139l-5.997-12.823c-0.307-0.657-0.516-1.18-0.623-1.567c-0.108-0.386-0.069-0.732,0.116-1.037
		c0.185-0.306,0.54-0.598,1.063-0.88c0.524-0.281,1.265-0.646,2.222-1.094l21.164-9.896c1.016-0.476,1.785-0.816,2.308-1.024
		c0.521-0.207,0.96-0.285,1.312-0.231c0.354,0.054,0.628,0.253,0.826,0.598c0.197,0.345,0.45,0.846,0.758,1.503l5.996,12.824
		c1.007,2.152,1.773,3.908,2.298,5.265c0.526,1.357,0.791,2.472,0.799,3.343c0.006,0.871-0.241,1.588-0.743,2.15
		s-1.263,1.156-2.283,1.778l-2.158,1.228c-0.16,0.44-0.071,1.017,0.265,1.734c0.308,0.658,0.696,1.021,1.167,1.094
		c2.154-1.154,4.258-2.229,6.307-3.223c2.049-0.995,4.119-1.98,6.212-2.959c3.886-1.817,7.845-3.56,11.874-5.225
		c0.187-0.38,0.134-0.919-0.157-1.621c-0.291-0.7-0.686-1.117-1.185-1.249l-1.878,0.659c-1.132,0.385-2.09,0.595-2.873,0.634
		c-0.784,0.038-1.493-0.231-2.127-0.81c-0.635-0.577-1.304-1.502-2.009-2.776c-0.704-1.272-1.56-2.986-2.566-5.139l-15.433-33.002
		c-1.006-2.152-1.771-3.906-2.298-5.264c-0.524-1.356-0.791-2.472-0.798-3.343c-0.008-0.871,0.255-1.595,0.788-2.172
		c0.531-0.576,1.338-1.189,2.418-1.841l1.71-1.019c0.219-0.466,0.152-1.036-0.199-1.71c-0.352-0.672-0.732-1.06-1.144-1.159
		c-2.037,1.1-4.004,2.109-5.903,3.033c-1.899,0.927-3.866,1.863-5.897,2.813c-2.094,0.979-4.163,1.929-6.209,2.849
		c-2.047,0.921-4.264,1.867-6.651,2.837c-0.188,0.38-0.135,0.92,0.156,1.62c0.291,0.703,0.688,1.119,1.186,1.249l2.278-0.737
		c1.191-0.41,2.178-0.636,2.963-0.675c0.782-0.038,1.491,0.231,2.126,0.809c0.635,0.578,1.298,1.489,1.988,2.731
		c0.691,1.245,1.539,2.941,2.546,5.094l4.864,10.403c0.308,0.658,0.53,1.173,0.668,1.545c0.137,0.373,0.114,0.712-0.07,1.018
		c-0.186,0.305-0.526,0.592-1.02,0.858c-0.494,0.269-1.25,0.64-2.266,1.114l-21.165,9.896c-0.957,0.448-1.71,0.783-2.263,1.004
		c-0.552,0.223-0.99,0.3-1.312,0.231c-0.323-0.067-0.6-0.267-0.826-0.598c-0.228-0.33-0.494-0.824-0.802-1.482l-4.865-10.403
		c-1.006-2.152-1.771-3.906-2.298-5.264c-0.524-1.356-0.807-2.464-0.843-3.322c-0.037-0.856,0.196-1.566,0.698-2.129
		c0.502-0.563,1.264-1.155,2.283-1.778l1.8-1.061c0.159-0.438,0.062-0.994-0.288-1.668c-0.353-0.672-0.733-1.06-1.144-1.159
		c-3.862,2.024-7.736,3.945-11.622,5.763c-4.007,1.873-8.264,3.754-12.771,5.644c-0.188,0.38-0.135,0.92,0.156,1.62
		C155.155,94.067,155.52,94.497,155.959,94.655z"/>
	<path d="M254.399,118.184c1.916-0.085,3.798-0.119,5.647-0.105c1.847,0.013,3.563,0.04,5.147,0.08
		c1.913,0.048,3.859,0.112,5.838,0.196c1.979,0.082,3.856,0.211,5.635,0.389c0.4-0.188,0.627-0.677,0.681-1.468
		c0.053-0.791-0.114-1.355-0.502-1.696l-3.751-0.49c-1.975-0.248-3.213-0.905-3.714-1.976c-0.502-1.067-0.716-3.021-0.645-5.858
		c0.043-1.715,0.104-3.562,0.188-5.541c0.082-1.979,0.165-3.973,0.25-5.985c0.083-2.011,0.165-3.973,0.247-5.886
		c0.08-1.912,0.174-3.66,0.28-5.242c0.199-2.701,0.38-5.288,0.541-7.76c0.162-2.472,0.381-5.289,0.658-8.451l0.198,0.005
		l20.897,51.131c0.193,0.203,0.486,0.358,0.88,0.468c0.394,0.108,0.754,0.167,1.085,0.176c0.527,0.013,1.06-0.172,1.599-0.555
		l24.523-49.79l0.198,0.005l-0.294,11.679l-0.477,26.825c-0.038,1.519-0.086,2.756-0.143,3.71c-0.058,0.957-0.241,1.728-0.553,2.313
		c-0.312,0.587-0.785,1.005-1.418,1.252c-0.635,0.249-1.547,0.456-2.739,0.624l-2.88,0.324c-0.471,0.319-0.699,0.841-0.684,1.567
		c0.015,0.728,0.282,1.228,0.804,1.506c2.312-0.075,4.657-0.099,7.033-0.071c2.376,0.025,4.619,0.066,6.731,0.12
		c4.288,0.107,8.607,0.315,12.957,0.622c0.466-0.186,0.71-0.641,0.728-1.368c0.021-0.791-0.13-1.39-0.449-1.793l-3.16-0.377
		c-1.053-0.158-1.871-0.426-2.455-0.805c-0.585-0.377-1.018-0.883-1.299-1.518c-0.281-0.634-0.46-1.398-0.537-2.292
		c-0.076-0.893-0.134-1.934-0.169-3.123c-0.165-6.605-0.208-13.391-0.132-20.354c0.076-6.963,0.187-14.667,0.334-23.115
		c0.036-1.451,0.181-2.652,0.437-3.604c0.255-0.95,0.638-1.718,1.147-2.299s1.18-1.01,2.013-1.286
		c0.832-0.276,1.844-0.464,3.035-0.567l2.58-0.232c0.34-0.388,0.52-0.943,0.537-1.67c0.019-0.726-0.233-1.227-0.754-1.505
		c-1.72,0.09-3.503,0.128-5.351,0.113c-1.849-0.012-3.531-0.039-5.049-0.077c-1.32-0.033-2.706-0.068-4.156-0.104
		c-1.452-0.036-3.231-0.181-5.337-0.432c-0.44,1.771-0.929,3.443-1.463,5.014c-0.535,1.571-1.17,3.189-1.905,4.854
		c-0.734,1.665-1.571,3.443-2.511,5.334c-0.938,1.893-2.032,4.043-3.281,6.454l-6.876,13.493c-1.042,2.088-2.119,4.155-3.226,6.207
		c-1.108,2.052-2.25,4.12-3.424,6.203c-0.376-0.802-0.815-1.72-1.317-2.757c-0.503-1.035-1.021-2.071-1.556-3.109
		c-0.536-1.036-1.038-2.056-1.508-3.058c-0.47-1.003-0.861-1.87-1.172-2.604l-7.787-17.229c-1.875-4.206-3.416-7.893-4.624-11.06
		c-1.208-3.165-1.777-6.101-1.709-8.807c-1.721,0.09-3.321,0.131-4.807,0.127s-2.955-0.025-4.405-0.062
		c-3.959-0.1-7.586-0.29-10.879-0.571c-0.532,0.12-0.807,0.574-0.827,1.366c-0.02,0.792,0.13,1.39,0.45,1.794l1.972,0.347
		c2.367,0.391,4.016,1.125,4.946,2.204c0.929,1.08,1.324,3.07,1.187,5.972c-0.069,2.771-0.234,6.02-0.492,9.742
		c-0.26,3.724-0.567,7.397-0.921,11.019c-0.45,4.742-0.837,8.976-1.161,12.696c-0.325,3.723-0.654,6.966-0.987,9.73
		c-0.173,1.58-0.369,2.847-0.591,3.798c-0.222,0.952-0.555,1.687-0.996,2.203c-0.443,0.518-1.029,0.882-1.761,1.094
		c-0.732,0.214-1.693,0.403-2.886,0.571l-1.888,0.25c-0.403,0.254-0.599,0.777-0.585,1.569
		C253.607,117.471,253.875,117.973,254.399,118.184z"/>
	<path d="M365.239,132.427c2.995,3.445,6.769,6.371,11.32,8.774c4.553,2.402,9.118,3.897,13.696,4.486
		c4.577,0.588,8.946,0.264,13.107-0.973c4.16-1.236,8.008-3.33,11.542-6.278c3.533-2.948,6.518-6.727,8.952-11.339
		c2.248-4.26,3.636-8.584,4.161-12.972c0.523-4.387,0.167-8.624-1.071-12.711c-1.239-4.087-3.332-7.897-6.279-11.432
		c-2.949-3.533-6.786-6.549-11.515-9.044c-4.552-2.403-9.157-3.827-13.811-4.269c-4.656-0.442-9.103-0.008-13.337,1.301
		c-4.236,1.309-8.114,3.423-11.632,6.342c-3.519,2.919-6.433,6.567-8.744,10.944c-2.311,4.378-3.685,8.784-4.121,13.217
		c-0.438,4.435-0.008,8.672,1.291,12.717C360.097,125.234,362.244,128.98,365.239,132.427z M371.065,109.194
		c1.113-3.666,2.426-6.928,3.937-9.789c2.156-4.084,4.517-7.428,7.085-10.029c2.565-2.6,5.206-4.527,7.922-5.781
		c2.714-1.254,5.464-1.835,8.253-1.744c2.787,0.091,5.465,0.813,8.034,2.17c3.209,1.693,5.617,3.955,7.224,6.779
		c1.604,2.825,2.532,5.946,2.783,9.361c0.248,3.416-0.119,7.046-1.104,10.892c-0.986,3.846-2.448,7.607-4.39,11.285
		c-2.033,3.852-4.261,7.117-6.682,9.794c-2.421,2.679-4.961,4.733-7.62,6.165c-2.659,1.434-5.386,2.178-8.176,2.233
		c-2.792,0.057-5.587-0.654-8.389-2.134c-3.853-2.033-6.548-4.668-8.085-7.905c-1.538-3.236-2.334-6.68-2.385-10.327
		C369.419,116.518,369.951,112.86,371.065,109.194z"/>
	<path d="M415.273,161.161c-0.656,0.97-0.877,1.58-0.666,1.835c0.84,1.018,1.645,1.937,2.41,2.761
		c0.766,0.821,1.568,1.741,2.41,2.76L440.498,194c1.093,1.322,2.019,2.441,2.775,3.356c0.758,0.916,1.439,1.765,2.044,2.55
		c0.606,0.783,1.222,1.579,1.848,2.39c0.627,0.81,1.377,1.794,2.252,2.956c0.973-0.377,2.152-0.839,3.541-1.387
		c1.388-0.549,2.829-1.162,4.323-1.841s2.979-1.37,4.451-2.074s2.807-1.421,4.001-2.152c0.332-0.53,0.337-1.093,0.02-1.686
		c-0.319-0.593-0.74-1.102-1.262-1.525c-2.378,0.852-4.427,1.197-6.146,1.034c-1.721-0.163-3.279-0.65-4.678-1.463
		c-1.401-0.812-2.693-1.884-3.879-3.216c-1.188-1.331-2.411-2.76-3.673-4.285l-13.879-16.786c-0.168-0.204-0.399-0.483-0.693-0.839
		c-0.253-0.306-0.459-0.606-0.618-0.902c-0.16-0.297-0.205-0.56-0.136-0.787c0.067-0.229,0.333-0.319,0.8-0.275l34.307,1.564
		c0.516,0.002,0.919-0.054,1.211-0.166c0.292-0.113,0.523-0.584,0.696-1.411l5.507-27.675c0.231-0.963,0.621-1.114,1.168-0.452
		l9.084,10.986c2.481,3.001,4.307,5.496,5.479,7.481c1.171,1.986,1.63,3.811,1.38,5.475c-0.193,1.528-0.53,2.985-1.012,4.369
		c-0.483,1.384-0.93,2.503-1.338,3.354c0.184,0.532,0.547,1.024,1.091,1.475c0.543,0.45,1.174,0.591,1.894,0.425
		c0.901-1.602,2.181-3.601,3.839-5.999c1.656-2.397,3.338-4.688,5.046-6.87c-0.067-0.288-0.232-0.643-0.497-1.066
		c-0.265-0.423-0.625-0.703-1.08-0.841c-0.5,0.327-0.959,0.472-1.377,0.432s-0.912-0.273-1.48-0.703
		c-0.569-0.429-1.231-1.101-1.988-2.017c-0.716-0.865-1.683-2.035-2.902-3.51l-14.51-17.548c-1.725-2.087-3.34-4.091-4.844-6.015
		c-1.507-1.924-3.078-3.878-4.719-5.861c-0.489-0.282-0.893-0.354-1.209-0.221c-0.318,0.135-0.629,0.327-0.935,0.58
		c-0.743,4.382-1.491,8.683-2.242,12.901c-0.752,4.218-1.46,8.1-2.124,11.647c-0.664,3.546-1.265,6.653-1.798,9.322
		c-0.535,2.668-0.909,4.647-1.125,5.94c-0.063,0.649-0.119,0.997-0.169,1.039c-0.103,0.084-0.197,0.099-0.285,0.043
		c-0.09-0.055-0.227-0.092-0.412-0.109c-1.073-0.056-2.508-0.133-4.303-0.232c-1.797-0.1-3.813-0.209-6.051-0.327
		c-2.24-0.119-4.664-0.254-7.274-0.408c-2.611-0.153-5.257-0.322-7.934-0.506c-2.679-0.184-5.333-0.365-7.964-0.544
		C420.084,161.441,417.604,161.289,415.273,161.161z"/>
	<path d="M136.466,412.989c1.317-0.504,2.4-0.757,3.247-0.756c0.847-0.001,1.552,0.264,2.113,0.79
		c0.562,0.526,1.16,1.322,1.797,2.387l0.993,1.687c0.455,0.218,1.009,0.157,1.663-0.182c0.652-0.34,1.027-0.711,1.124-1.113
		c-1.074-2.007-2.062-3.945-2.965-5.815c-0.905-1.872-1.821-3.809-2.75-5.81l-18.329-39.479c-1.832-3.946-3.672-8.137-5.52-12.575
		c-0.371-0.188-0.896-0.139-1.576,0.141c-0.682,0.279-1.1,0.636-1.252,1.065l0.851,2.289c0.435,1.086,0.649,2.006,0.646,2.759
		c-0.004,0.753-0.271,1.468-0.804,2.146c-0.532,0.676-1.418,1.354-2.652,2.036c-1.237,0.681-2.899,1.507-4.989,2.477l-32.043,14.877
		c-2.09,0.97-3.795,1.707-5.112,2.211c-1.318,0.505-2.4,0.757-3.247,0.756c-0.847,0.001-1.545-0.248-2.093-0.745
		c-0.549-0.497-1.128-1.249-1.734-2.255l-1.036-1.773c-0.428-0.159-0.968-0.07-1.621,0.27c-0.654,0.34-1.028,0.709-1.123,1.112
		c1.978,3.806,3.855,7.621,5.632,11.448c1.859,4.004,3.699,8.195,5.521,12.575c0.369,0.186,0.894,0.139,1.575-0.14
		c0.68-0.28,1.098-0.637,1.252-1.065l-0.852-2.289c-0.376-1.113-0.576-2.04-0.602-2.779c-0.026-0.739,0.228-1.447,0.761-2.125
		c0.532-0.676,1.415-1.354,2.652-2.036c1.234-0.682,2.898-1.507,4.988-2.477l38.052-17.666c0.638-0.297,1.146-0.497,1.521-0.6
		c0.375-0.103,0.711-0.062,1.009,0.123c0.297,0.184,0.582,0.534,0.858,1.05c0.274,0.517,0.631,1.245,1.068,2.188l9.677,20.845
		c0.465,1,0.798,1.759,1.003,2.272c0.201,0.514,0.279,0.943,0.229,1.289c-0.052,0.346-0.245,0.614-0.579,0.806
		c-0.335,0.191-0.821,0.435-1.46,0.731l-38.052,17.666c-2.089,0.97-3.794,1.707-5.111,2.212c-1.318,0.505-2.4,0.756-3.247,0.756
		c-0.848-0.001-1.545-0.249-2.093-0.746c-0.549-0.497-1.128-1.248-1.734-2.254l-1.2-2.128c-0.428-0.16-0.988-0.078-1.685,0.245
		c-0.64,0.298-0.991,0.677-1.061,1.138c1.128,2.123,2.178,4.195,3.149,6.214c0.974,2.017,1.937,4.056,2.894,6.117
		c1.776,3.827,3.48,7.726,5.11,11.691c0.369,0.187,0.894,0.14,1.574-0.14c0.681-0.281,1.085-0.665,1.212-1.152l-0.646-1.848
		c-0.376-1.114-0.583-2.056-0.622-2.824c-0.041-0.77,0.22-1.463,0.78-2.08c0.56-0.62,1.457-1.268,2.694-1.948
		c1.234-0.682,2.898-1.508,4.988-2.479l32.043-14.875C133.444,414.231,135.148,413.494,136.466,412.989z"/>
	<path d="M149.535,469.345l-1.554,2.518c-0.042,0.502,0.213,1.027,0.764,1.579c0.552,0.55,1.076,0.759,1.577,0.626
		c0.904-0.997,1.932-2.118,3.086-3.364c1.152-1.244,2.362-2.501,3.63-3.769c1.312-1.313,2.59-2.546,3.835-3.699
		c1.243-1.154,2.409-2.229,3.497-3.224c0.087-0.455-0.144-0.958-0.694-1.509c-0.552-0.551-1.056-0.828-1.511-0.831l-2.517,1.691
		c-1.044,0.677-1.964,1.071-2.761,1.179c-0.797,0.108-1.55,0.011-2.258-0.29c-0.71-0.302-1.408-0.75-2.096-1.348
		c-0.688-0.597-1.445-1.309-2.271-2.134l-4.477-4.475c-0.965-0.964-1.449-1.628-1.451-1.993c-0.003-0.363,0.472-1.021,1.422-1.973
		l12.487-12.493c0.633-0.634,1.141-1.121,1.526-1.459c0.385-0.34,0.726-0.52,1.021-0.541c0.297-0.02,0.616,0.096,0.96,0.349
		c0.343,0.253,0.792,0.655,1.343,1.206l5.303,5.3c1.516,1.515,2.699,2.924,3.553,4.229c0.851,1.305,1.386,2.631,1.602,3.978
		c0.214,1.345,0.145,2.769-0.207,4.271c-0.355,1.502-1.004,3.184-1.946,5.046c0.005,0.546,0.292,1.061,0.866,1.544
		c0.571,0.482,1.108,0.612,1.608,0.387c0.949-1.04,1.909-2.141,2.882-3.296c0.97-1.155,1.874-2.243,2.711-3.263
		c0.834-1.02,1.557-1.927,2.168-2.72c0.607-0.794,1.025-1.35,1.252-1.666c-0.504-0.322-1.651-1.356-3.441-3.101
		c-1.791-1.744-3.787-3.718-5.991-5.92l-14.051-14.043c-3.03-3.029-6.039-6.172-9.025-9.428c-0.503-0.14-1.026,0.039-1.568,0.536
		c-0.544,0.498-0.791,0.998-0.74,1.499l1.242,1.649c0.735,1.008,1.255,1.865,1.557,2.574c0.302,0.708,0.317,1.449,0.051,2.222
		c-0.269,0.772-0.842,1.67-1.724,2.688c-0.881,1.02-2.135,2.345-3.765,3.974l-25.042,25.056c-1.628,1.629-2.952,2.886-3.971,3.767
		c-1.02,0.882-1.928,1.446-2.723,1.691c-0.796,0.245-1.537,0.206-2.223-0.118c-0.688-0.324-1.51-0.831-2.473-1.521l-3.3-2.483
		c-0.412-0.049-0.888,0.198-1.43,0.743c-0.499,0.498-0.699,0.974-0.605,1.431c2.479,2.294,4.556,4.259,6.231,5.888
		s3.315,3.247,4.924,4.854l7.989,7.985c2.893,2.89,5.832,5.849,8.816,8.879c2.984,3.026,5.58,5.733,7.785,8.12
		c0.681-0.223,1.612-0.604,2.795-1.143c1.18-0.539,2.395-1.157,3.644-1.855c1.248-0.698,2.495-1.441,3.743-2.23
		c1.248-0.79,2.301-1.522,3.163-2.2c0.224-0.5,0.105-1.07-0.354-1.711c-0.461-0.642-0.987-0.941-1.579-0.9
		c-2.547,0.896-4.684,1.494-6.413,1.802c-1.73,0.308-3.313,0.285-4.752-0.066s-2.856-1.067-4.255-2.148
		c-1.398-1.08-3.061-2.584-4.989-4.513c-1.332-1.331-2.411-2.478-3.239-3.439c-0.827-0.963-1.438-1.798-1.829-2.508
		c-0.394-0.709-0.638-1.315-0.731-1.817c-0.096-0.503-0.122-1.004-0.08-1.505c0.082-1.093,0.599-2.252,1.547-3.476
		c0.948-1.225,2.259-2.673,3.934-4.35l8.618-8.622c0.95-0.951,1.606-1.426,1.972-1.422c0.364,0.002,1.029,0.485,1.994,1.45
		l4.477,4.473c0.826,0.826,1.537,1.584,2.136,2.271c0.598,0.688,1.036,1.374,1.314,2.059c0.278,0.687,0.353,1.439,0.222,2.259
		C150.614,467.368,150.209,468.302,149.535,469.345z"/>
	<path d="M364.727,525.525c-0.789,0.021-1.333,0.287-1.633,0.799c-0.692,2.609-1.399,4.714-2.118,6.315
		c-0.721,1.603-1.63,2.901-2.728,3.892c-1.102,0.992-2.49,1.762-4.172,2.31c-1.68,0.548-3.857,1.076-6.537,1.587
		c-1.849,0.353-3.404,0.598-4.665,0.741c-1.262,0.143-2.297,0.178-3.104,0.102c-0.807-0.073-1.445-0.213-1.913-0.416
		c-0.469-0.204-0.899-0.464-1.289-0.781c-0.858-0.683-1.525-1.763-2.003-3.234c-0.479-1.473-0.939-3.372-1.382-5.697l-2.281-11.979
		c-0.252-1.319-0.275-2.129-0.066-2.43c0.206-0.299,0.979-0.577,2.318-0.833l6.219-1.184c1.148-0.218,2.174-0.38,3.078-0.489
		c0.906-0.105,1.719-0.082,2.443,0.072c0.723,0.156,1.388,0.519,1.991,1.088c0.604,0.568,1.146,1.428,1.63,2.572l1.209,2.702
		c0.39,0.316,0.968,0.401,1.734,0.255c0.764-0.145,1.232-0.462,1.402-0.951c-0.314-1.308-0.664-2.787-1.044-4.443
		c-0.38-1.652-0.738-3.36-1.074-5.121c-0.346-1.823-0.647-3.572-0.9-5.252c-0.255-1.677-0.487-3.245-0.698-4.704
		c-0.327-0.329-0.873-0.421-1.638-0.274c-0.767,0.146-1.277,0.405-1.536,0.781l-0.018,3.033c-0.028,1.243-0.222,2.225-0.578,2.944
		c-0.359,0.719-0.862,1.286-1.51,1.704c-0.648,0.416-1.412,0.741-2.294,0.975c-0.882,0.232-1.895,0.458-3.043,0.677l-6.217,1.184
		c-1.34,0.255-2.162,0.282-2.464,0.078c-0.303-0.202-0.581-0.965-0.831-2.285l-3.306-17.352c-0.166-0.88-0.283-1.574-0.347-2.083
		c-0.063-0.51-0.021-0.893,0.128-1.15c0.151-0.255,0.425-0.453,0.829-0.597c0.402-0.14,0.985-0.285,1.75-0.432l7.367-1.401
		c2.105-0.401,3.936-0.587,5.495-0.559c1.556,0.03,2.953,0.334,4.188,0.913c1.233,0.58,2.371,1.438,3.415,2.575
		c1.042,1.137,2.068,2.62,3.076,4.446c0.455,0.305,1.042,0.355,1.765,0.152c0.721-0.201,1.13-0.572,1.224-1.112
		c-0.325-1.369-0.694-2.783-1.104-4.236c-0.408-1.452-0.8-2.812-1.172-4.076c-0.374-1.264-0.716-2.371-1.028-3.322
		c-0.314-0.949-0.54-1.608-0.674-1.974c-0.549,0.236-2.051,0.603-4.5,1.102c-2.448,0.5-5.204,1.04-8.265,1.623l-19.513,3.716
		c-4.09,0.778-8.257,1.475-12.499,2.099c0.07-0.183,0.141-0.362,0.211-0.523c-0.109-0.206-0.301-0.387-0.577-0.546
		c-0.275-0.16-0.579-0.224-0.908-0.196c-0.266,0.036-0.605,0.159-1.021,0.37c-0.557,0.905-1.377,1.396-2.463,1.47
		c-1.085,0.074-3.049-0.044-5.888-0.354l-37.074-4.058c-1.613-0.177-2.919-0.335-3.914-0.478c-0.998-0.14-1.777-0.322-2.341-0.546
		c-0.563-0.222-0.973-0.508-1.229-0.857c-0.255-0.35-0.42-0.786-0.493-1.311c-0.116-0.14-0.331-0.262-0.646-0.36
		c-0.316-0.097-0.606-0.13-0.871-0.095c-0.2,0.043-0.516,0.232-0.944,0.572c-0.266,0.834-0.55,1.755-0.846,2.739
		c-1.489-0.608-2.916-1.224-4.255-1.847c-1.502-0.694-3.099-1.457-4.79-2.282c-1.751-0.854-3.51-1.729-5.274-2.626
		c-1.767-0.896-3.729-1.942-5.891-3.14c-0.404,0.089-0.774,0.441-1.111,1.06c-0.34,0.619-0.417,1.186-0.234,1.701l1.887,1.241
		c1.316,0.856,2.312,1.662,2.99,2.421c0.677,0.756,1.009,1.597,0.995,2.514c0.011,0.718-0.185,1.744-0.582,3.081
		c-0.4,1.336-0.92,2.809-1.56,4.42c-0.642,1.609-1.354,3.256-2.138,4.938c-0.786,1.683-1.542,3.271-2.271,4.767l-6.943,14.236
		c-0.31,0.635-0.633,1.26-0.97,1.878c-0.339,0.618-0.72,1.216-1.146,1.79c-0.669-2.035-1.421-4.412-2.261-7.137
		c-0.839-2.723-1.75-5.963-2.734-9.718l-3.367-12.645c-0.649-2.523-1.318-5.11-2.011-7.763c-0.693-2.652-1.305-5.176-1.833-7.57
		c-0.53-2.395-0.934-4.566-1.209-6.517c-0.277-1.952-0.309-3.515-0.095-4.693c-1.659-0.595-3.773-1.521-6.341-2.772
		c-1.458-0.711-3.202-1.578-5.229-2.603c-2.03-1.026-4.008-2.078-5.934-3.162c-0.524-0.113-0.969,0.169-1.334,0.846
		c-0.366,0.675-0.487,1.256-0.363,1.744l2.062,1.327c1.258,0.826,2.168,1.662,2.732,2.506c0.562,0.846,0.922,1.698,1.081,2.558
		c0.132,1.063,0.031,2.081-0.3,3.058c-0.332,0.979-0.989,2.474-1.971,4.486L175.25,492.47c-0.729,1.497-1.517,3.071-2.358,4.725
		c-0.844,1.654-1.702,3.229-2.575,4.726c-0.875,1.496-1.694,2.806-2.458,3.928s-1.446,1.93-2.047,2.42
		c-0.743,0.635-1.629,0.897-2.658,0.786c-1.03-0.11-2.171-0.364-3.421-0.761l-2.707-0.893c-0.461,0.201-0.817,0.599-1.066,1.188
		c-0.253,0.59-0.303,1.101-0.15,1.53c2.273,0.965,4.249,1.84,5.926,2.623c1.677,0.781,3.36,1.585,5.053,2.411
		c1.692,0.824,3.421,1.685,5.187,2.583c1.766,0.896,3.729,1.941,5.891,3.14c0.431-0.146,0.809-0.514,1.133-1.103
		c0.324-0.59,0.425-1.129,0.301-1.616l-2.411-1.497c-1.112-0.684-2.021-1.411-2.728-2.185c-0.706-0.771-1.039-1.645-0.996-2.621
		c0.017-0.775,0.232-1.809,0.647-3.103c0.413-1.294,0.94-2.745,1.582-4.355c0.64-1.61,1.353-3.256,2.138-4.938
		c0.783-1.683,1.541-3.271,2.271-4.768l8.501-17.429c0.393-0.805,0.878-1.726,1.456-2.762c0.576-1.036,1.119-1.927,1.63-2.677
		c0.211,0.603,0.485,1.449,0.821,2.537c0.335,1.09,0.694,2.352,1.079,3.783c0.384,1.436,0.777,2.997,1.181,4.688
		c0.402,1.691,0.834,3.398,1.296,5.118l8.605,33.891c1.14,4.474,1.911,8,2.314,10.582c0.402,2.58,0.721,3.999,0.957,4.258
		c0.732,0.57,1.591,0.847,2.575,0.829c0.984-0.019,1.704-0.201,2.162-0.548c0.278-0.718,0.684-1.659,1.216-2.824
		c0.531-1.166,1.12-2.407,1.766-3.732c0.646-1.321,1.305-2.675,1.979-4.055c0.673-1.381,1.29-2.646,1.852-3.796l10.058-20.623
		c0.729-1.494,1.515-3.069,2.358-4.724c0.843-1.653,1.68-3.222,2.511-4.704c0.831-1.48,1.636-2.796,2.414-3.949
		c0.778-1.15,1.466-1.971,2.067-2.462c0.656-0.605,1.483-0.896,2.484-0.872c0.998,0.025,2.182,0.264,3.55,0.718l1.338,0.459
		c-0.097,0.339-0.192,0.666-0.292,1.018c-0.744,2.623-1.725,5.317-2.941,8.081c0.202,0.538,0.634,0.923,1.294,1.155
		c0.66,0.233,1.266,0.22,1.817-0.043c0.648-1.151,1.271-2.227,1.871-3.223c0.599-0.997,1.301-1.901,2.109-2.715
		c1.242-1.217,2.752-2.032,4.529-2.449c1.774-0.417,3.793-0.504,6.053-0.256l5.808,0.636c1.29,0.141,2.015,0.382,2.174,0.72
		c0.159,0.341,0.169,1.146,0.029,2.419l-4.627,42.275c-0.251,2.29-0.499,4.114-0.746,5.471c-0.246,1.358-0.603,2.381-1.07,3.07
		s-1.071,1.139-1.812,1.347c-0.742,0.208-1.699,0.313-2.875,0.313l-4.118,0.031c-0.414,0.213-0.647,0.688-0.693,1.422
		c-0.049,0.734,0.074,1.246,0.37,1.538c3.305,0.231,6.152,0.463,8.544,0.692c2.391,0.229,4.684,0.464,6.878,0.704
		c2.13,0.233,4.321,0.488,6.577,0.77c2.255,0.277,4.892,0.646,7.911,1.107c0.351-0.221,0.581-0.693,0.694-1.422
		c0.111-0.728,0.024-1.268-0.263-1.623l-3.54-0.773c-1.212-0.261-2.143-0.556-2.793-0.885c-0.649-0.327-1.111-0.894-1.382-1.696
		c-0.271-0.803-0.381-1.892-0.327-3.271c0.053-1.378,0.204-3.212,0.455-5.502l4.617-42.181c0.152-1.399,0.356-2.23,0.615-2.491
		c0.257-0.263,1.029-0.323,2.321-0.181l6.195,0.678c2.452,0.268,4.353,0.799,5.703,1.589c1.349,0.793,2.41,1.843,3.182,3.149
		c0.433,0.82,0.746,1.837,0.94,3.048c0.192,1.214,0.356,2.405,0.49,3.579c0.215,0.411,0.746,0.629,1.593,0.657
		c0.845,0.029,1.387-0.138,1.622-0.499c0.061-1.151,0.202-2.455,0.429-3.911c0.224-1.456,0.479-2.908,0.771-4.358
		c0.288-1.449,0.604-2.832,0.943-4.146c0.042-0.163,0.085-0.311,0.127-0.467c0.144,0.443,0.377,0.757,0.703,0.934l2.062-0.1
		c1.247-0.042,2.248,0.012,3.005,0.161c0.755,0.149,1.377,0.554,1.865,1.208c0.489,0.657,0.906,1.636,1.255,2.938
		c0.346,1.303,0.735,3.084,1.165,5.348l6.628,34.799c0.431,2.264,0.723,4.064,0.881,5.403c0.155,1.339,0.111,2.406-0.134,3.201
		c-0.245,0.797-0.695,1.388-1.35,1.772s-1.536,0.78-2.647,1.188l-3.91,1.33c-0.271,0.313-0.335,0.847-0.19,1.602
		c0.132,0.692,0.412,1.126,0.843,1.305c3.291-0.758,6.083-1.371,8.374-1.839c2.289-0.469,4.548-0.915,6.782-1.34l11.095-2.114
		c4.02-0.765,8.117-1.53,12.302-2.294c4.184-0.764,7.881-1.387,11.093-1.868c0.199-0.688,0.409-1.673,0.629-2.953
		c0.217-1.278,0.391-2.63,0.516-4.057c0.125-1.424,0.212-2.874,0.262-4.349c0.049-1.476,0.036-2.759-0.04-3.853
		C366.053,525.729,365.516,525.506,364.727,525.525z"/>
	<path d="M435.768,504.714l-2.029,0.742c-0.921,0.341-1.736,0.499-2.446,0.474c-0.71-0.022-1.451-0.213-2.224-0.565
		c-0.773-0.352-1.62-0.918-2.544-1.698c-0.924-0.779-2.031-1.769-3.323-2.971L393.78,473.22c-2.32-2.179-4.251-4.001-5.793-5.468
		c-1.542-1.468-2.93-2.814-4.164-4.047c-0.885-0.981-1.695-1.131-2.438-0.452c-0.144,0.147-0.319,0.512-0.528,1.091
		c-0.207,0.58-0.485,1.27-0.836,2.067c-0.351,0.8-0.773,1.601-1.267,2.402c-0.496,0.803-1.043,1.471-1.643,2.003
		c0.681,1.018,1.144,2.381,1.386,4.098c0.243,1.717,0.545,3.963,0.904,6.739l3.21,25.756c0.558,4.407,0.967,8.079,1.229,11.014
		c0.262,2.938,0.494,5.508,0.702,7.714c0.175,2.005-0.026,3.503-0.606,4.494c-0.578,0.992-1.354,1.816-2.329,2.474l-2.365,1.569
		c-0.138,0.435-0.043,0.963,0.283,1.587c0.329,0.623,0.754,0.939,1.274,0.956c1.725-0.906,3.21-1.743,4.458-2.507
		c1.248-0.767,2.617-1.541,4.112-2.327c1.925-0.942,3.692-1.835,5.302-2.681c1.607-0.848,3.102-1.562,4.483-2.143
		c0.34-0.469,0.325-1.02-0.046-1.658c-0.373-0.634-0.775-1.019-1.212-1.151l-2.851,1.066c-1.208,0.491-2.073,0.693-2.596,0.605
		c-0.524-0.085-0.873-0.3-1.052-0.64c-0.208-0.396-0.421-0.972-0.635-1.728c-0.215-0.755-0.433-1.832-0.656-3.234l-5.083-32.038
		c-0.291-1.943-0.549-3.761-0.777-5.449c-0.228-1.687-0.362-2.99-0.405-3.908l0.085-0.045c0.764,0.612,1.753,1.482,2.971,2.613
		c1.219,1.132,2.489,2.324,3.811,3.581l22.651,21.928c2.496,2.375,3.923,3.901,4.281,4.581c0.148,0.284,0.104,0.65-0.136,1.103
		c-0.24,0.451-0.803,1.019-1.69,1.703l-2.447,1.83c-0.253,0.495-0.202,1.046,0.155,1.653c0.356,0.609,0.823,0.905,1.402,0.889
		c1.664-1.021,3.363-2.005,5.103-2.955c1.735-0.951,3.667-1.984,5.794-3.104c2.011-1.058,3.898-2.033,5.667-2.927
		c1.767-0.895,3.599-1.769,5.497-2.622c0.312-0.524,0.303-1.098-0.025-1.723C436.601,505.252,436.206,504.847,435.768,504.714z"/>
	<path d="M497.555,442.403l-1.451,1.313c-0.88,0.778-1.667,1.337-2.359,1.671c-0.693,0.337-1.434,0.367-2.22,0.091
		c-0.787-0.274-1.733-0.851-2.843-1.725c-1.107-0.874-2.516-2.084-4.223-3.632l-26.167-23.734c-1.707-1.549-3.049-2.831-4.026-3.85
		c-0.977-1.018-1.632-1.917-1.959-2.696c-0.33-0.781-0.361-1.532-0.095-2.256c0.267-0.722,0.767-1.582,1.501-2.583l1.166-1.571
		c0.024-0.503-0.246-0.989-0.814-1.461c-0.566-0.47-1.055-0.67-1.461-0.603c-1.433,1.77-2.834,3.434-4.206,4.994
		c-1.371,1.561-2.801,3.158-4.282,4.792c-1.527,1.684-3.043,3.332-4.549,4.944c-1.507,1.614-3.157,3.315-4.954,5.104
		c-0.028,0.415,0.219,0.88,0.743,1.397c0.522,0.519,1.034,0.741,1.532,0.668l1.783-1.538c0.925-0.826,1.731-1.409,2.426-1.745
		c0.692-0.335,1.432-0.364,2.22-0.09c0.786,0.275,1.723,0.841,2.807,1.692c1.086,0.853,2.48,2.052,4.188,3.601l8.248,7.48
		c0.522,0.474,0.914,0.851,1.177,1.133c0.261,0.282,0.367,0.596,0.312,0.941c-0.054,0.346-0.255,0.734-0.603,1.163
		c-0.346,0.432-0.891,1.055-1.632,1.872l-15.439,17.021c-0.698,0.771-1.254,1.36-1.671,1.771c-0.416,0.411-0.783,0.65-1.1,0.713
		c-0.316,0.063-0.64-0.01-0.967-0.221c-0.328-0.209-0.751-0.55-1.274-1.024l-8.248-7.48c-1.707-1.549-3.048-2.832-4.026-3.85
		c-0.977-1.018-1.642-1.905-1.993-2.661c-0.35-0.757-0.403-1.484-0.158-2.184c0.244-0.697,0.712-1.521,1.402-2.474l1.231-1.644
		c-0.019-0.455-0.312-0.918-0.879-1.39c-0.567-0.469-1.055-0.671-1.462-0.603c-2.736,3.302-5.522,6.517-8.356,9.642
		c-2.923,3.223-6.068,6.548-9.438,9.977c-0.028,0.414,0.22,0.879,0.742,1.397c0.523,0.519,1.013,0.766,1.469,0.738l1.777-1.673
		c0.833-0.823,1.597-1.379,2.291-1.67c0.696-0.289,1.457-0.32,2.288-0.093s1.801,0.779,2.909,1.651
		c1.108,0.874,2.516,2.084,4.222,3.633l26.168,23.733c1.705,1.549,3.049,2.832,4.026,3.85c0.978,1.019,1.629,1.918,1.959,2.698
		c0.328,0.781,0.371,1.52,0.127,2.218c-0.245,0.698-0.712,1.524-1.402,2.475l-1.232,1.644c0.02,0.458,0.312,0.921,0.88,1.39
		c0.566,0.472,1.053,0.672,1.462,0.604c2.735-3.303,5.521-6.517,8.355-9.643c2.966-3.27,6.112-6.595,9.438-9.977
		c0.027-0.412-0.219-0.877-0.742-1.396c-0.524-0.519-1.012-0.765-1.468-0.74l-1.777,1.675c-0.88,0.78-1.655,1.324-2.327,1.637
		c-0.671,0.312-1.423,0.354-2.253,0.125c-0.831-0.228-1.8-0.778-2.907-1.651c-1.108-0.873-2.516-2.085-4.224-3.633l-10.168-9.223
		c-0.521-0.473-0.903-0.862-1.144-1.169c-0.241-0.305-0.334-0.632-0.28-0.977c0.055-0.346,0.266-0.744,0.634-1.2
		c0.369-0.454,0.902-1.065,1.601-1.835l15.439-17.021c0.741-0.818,1.31-1.42,1.704-1.807s0.761-0.625,1.099-0.713
		s0.66-0.013,0.968,0.221c0.306,0.233,0.721,0.587,1.241,1.06l10.168,9.223c1.707,1.549,3.05,2.832,4.026,3.85
		c0.978,1.019,1.631,1.918,1.96,2.697c0.329,0.781,0.371,1.52,0.126,2.219c-0.243,0.697-0.711,1.523-1.402,2.475l-1.493,1.932
		c0.02,0.458,0.312,0.94,0.882,1.457c0.521,0.474,1.008,0.65,1.46,0.536c1.517-1.865,3.018-3.639,4.499-5.319
		c1.479-1.681,2.984-3.361,4.512-5.045c2.834-3.125,5.762-6.211,8.782-9.255c0.028-0.412-0.218-0.878-0.741-1.396
		C498.566,442.552,498.054,442.329,497.555,442.403z"/>
	<path d="M525.067,367.927c-1.275-0.954-2.556-1.894-3.844-2.818c-1.286-0.925-2.52-1.723-3.699-2.396
		c-0.607-0.029-1.089,0.236-1.446,0.793c-0.356,0.558-0.594,1.162-0.713,1.812c1.836,1.629,3.086,3.219,3.749,4.77
		c0.662,1.552,0.975,3.121,0.934,4.709c-0.039,1.59-0.351,3.211-0.932,4.865s-1.229,3.389-1.941,5.201l-7.836,19.938
		c-0.095,0.241-0.226,0.574-0.392,0.997c-0.143,0.361-0.303,0.683-0.48,0.961c-0.178,0.28-0.382,0.444-0.607,0.494
		c-0.227,0.051-0.428-0.133-0.608-0.553l-14.662-30.142c-0.24-0.442-0.476-0.762-0.708-0.958c-0.232-0.195-0.741-0.167-1.526,0.081
		l-26.157,8.553c-0.929,0.264-1.238,0.003-0.931-0.784l5.13-13.05c1.401-3.565,2.676-6.326,3.82-8.281
		c1.148-1.955,2.489-3.223,4.023-3.807c1.395-0.568,2.793-0.979,4.197-1.229c1.404-0.249,2.565-0.404,3.482-0.462
		c0.368-0.414,0.619-0.961,0.749-1.642c0.13-0.683-0.045-1.29-0.521-1.827c-1.785-0.004-4.086-0.141-6.904-0.411
		c-2.815-0.27-5.551-0.613-8.207-1.028c-0.215,0.195-0.44,0.507-0.678,0.936c-0.237,0.431-0.308,0.874-0.213,1.33
		c0.512,0.271,0.849,0.595,1.01,0.972c0.161,0.378,0.192,0.913,0.092,1.606c-0.101,0.692-0.364,1.583-0.792,2.67
		c-0.404,1.028-0.95,2.417-1.64,4.169l-8.191,20.845c-0.974,2.478-1.929,4.823-2.866,7.034c-0.938,2.214-1.871,4.496-2.797,6.853
		c-0.013,0.555,0.114,0.935,0.377,1.142c0.263,0.209,0.571,0.382,0.929,0.523c4.082-1.465,8.097-2.887,12.043-4.266
		c3.945-1.379,7.584-2.634,10.917-3.766c3.333-1.131,6.262-2.108,8.784-2.931c2.524-0.821,4.387-1.448,5.589-1.884
		c0.583-0.258,0.906-0.377,0.964-0.353c0.121,0.046,0.176,0.121,0.17,0.223c-0.004,0.103,0.027,0.238,0.099,0.405
		c0.453,0.946,1.058,2.212,1.809,3.797c0.753,1.588,1.601,3.368,2.543,5.341c0.942,1.977,1.957,4.119,3.044,6.428
		c1.087,2.311,2.176,4.659,3.268,7.039c1.093,2.383,2.177,4.745,3.25,7.084c1.076,2.342,2.103,4.541,3.08,6.599
		c1.133,0.098,1.756-0.006,1.876-0.31c0.474-1.208,0.882-2.337,1.228-3.389c0.344-1.049,0.754-2.179,1.228-3.389l11.897-30.27
		c0.616-1.57,1.14-2.899,1.566-3.987c0.428-1.087,0.834-2.079,1.221-2.973c0.386-0.896,0.775-1.804,1.175-2.729
		c0.397-0.925,0.888-2.04,1.47-3.346c-0.774-0.652-1.718-1.442-2.832-2.369C527.538,369.823,526.342,368.882,525.067,367.927z"/>
</g>
</svg>
